<svg width="152" height="152" viewBox="0 0 13 13" shape-rendering="crispEdges" aria-hidden="true" xmlns="http://www.w3.org/2000/svg">
  <rect width="1" height="1" x="11" fill="#666"/>
  <rect width="1" height="1" x="12" fill="#1a1a1a"/>
  <rect width="1" height="1" x="10" y="1" fill="#4d4d4d"/>
  <rect width="1" height="1" x="11" y="1"/>
  <rect width="1" height="1" x="3" y="2" fill="#333"/>
  <rect width="1" height="1" x="4" y="2"/>
  <rect width="1" height="1" x="5" y="2" fill="#1a1a1a"/>
  <rect width="1" height="1" x="7" y="2" fill="#1a1a1a"/>
  <rect width="1" height="1" x="9" y="2" fill="#333"/>
  <rect width="1" height="1" x="10" y="2"/>
  <rect width="1" height="1" x="2" y="3" fill="#333"/>
  <rect width="1" height="1" x="3" y="3"/>
  <rect width="1" height="1" x="4" y="3"/>
  <rect width="1" height="1" x="5" y="3"/>
  <rect width="1" height="1" x="6" y="3"/>
  <rect width="1" height="1" x="7" y="3"/>
  <rect width="1" height="1" x="8" y="3"/>
  <rect width="1" height="1" x="9" y="3"/>
  <rect width="1" height="1" x="1" y="4" fill="#333"/>
  <rect width="1" height="1" x="2" y="4" fill="#1a1a1a"/>
  <rect width="1" height="1" x="3" y="4"/>
  <rect width="1" height="1" x="4" y="4"/>
  <rect width="1" height="1" x="5" y="4"/>
  <rect width="1" height="1" x="6" y="4"/>
  <rect width="1" height="1" x="7" y="4"/>
  <rect width="1" height="1" x="8" y="4"/>
  <rect width="1" height="1" x="9" y="4"/>
  <rect width="1" height="1" y="5" fill="#333"/>
  <rect width="1" height="1" x="1" y="5" fill="#1a1a1a"/>
  <rect width="1" height="1" x="2" y="5"/>
  <rect width="1" height="1" x="3" y="5"/>
  <rect width="1" height="1" x="4" y="5"/>
  <rect width="1" height="1" x="5" y="5"/>
  <rect width="1" height="1" x="6" y="5" fill="#26EF00"/>
  <rect width="1" height="1" x="7" y="5" fill="#26E400"/>
  <rect width="1" height="1" x="8" y="5"/>
  <rect width="1" height="1" x="9" y="5"/>
  <rect width="1" height="1" x="10" y="5" fill="#1a1a1a"/>
  <rect width="1" height="1" y="6"/>
  <rect width="1" height="1" x="1" y="6"/>
  <rect width="1" height="1" x="2" y="6"/>
  <rect width="1" height="1" x="3" y="6"/>
  <rect width="1" height="1" x="4" y="6"/>
  <rect width="1" height="1" x="5" y="6"/>
  <rect width="1" height="1" x="6" y="6" fill="#26EF00"/>
  <rect width="1" height="1" x="7" y="6" fill="#26EF00"/>
  <rect width="1" height="1" x="8" y="6"/>
  <rect width="1" height="1" x="9" y="6"/>
  <rect width="1" height="1" y="7"/>
  <rect width="1" height="1" x="1" y="7"/>
  <rect width="1" height="1" x="2" y="7"/>
  <rect width="1" height="1" x="3" y="7"/>
  <rect width="1" height="1" x="4" y="7"/>
  <rect width="1" height="1" x="5" y="7"/>
  <rect width="1" height="1" x="6" y="7"/>
  <rect width="1" height="1" x="7" y="7"/>
  <rect width="1" height="1" x="8" y="7"/>
  <rect width="1" height="1" x="9" y="7"/>
  <rect width="1" height="1" y="8"/>
  <rect width="1" height="1" x="1" y="8"/>
  <rect width="1" height="1" x="2" y="8"/>
  <rect width="1" height="1" x="3" y="8"/>
  <rect width="1" height="1" x="4" y="8"/>
  <rect width="1" height="1" x="5" y="8"/>
  <rect width="1" height="1" x="6" y="8"/>
  <rect width="1" height="1" x="7" y="8"/>
  <rect width="1" height="1" x="8" y="8"/>
  <rect width="1" height="1" x="9" y="8"/>
  <rect width="1" height="1" x="10" y="8" fill="#333"/>
  <rect width="1" height="1" y="9"/>
  <rect width="1" height="1" x="1" y="9"/>
  <rect width="1" height="1" x="2" y="9"/>
  <rect width="1" height="1" x="3" y="9"/>
  <rect width="1" height="1" x="4" y="9"/>
  <rect width="1" height="1" x="5" y="9"/>
  <rect width="1" height="1" x="6" y="9"/>
  <rect width="1" height="1" x="7" y="9"/>
  <rect width="1" height="1" x="8" y="9"/>
  <rect width="1" height="1" x="9" y="9"/>
  <rect width="1" height="1" x="10" y="9"/>
  <rect width="1" height="1" y="10"/>
  <rect width="1" height="1" x="1" y="10"/>
  <rect width="1" height="1" x="2" y="10"/>
  <rect width="1" height="1" x="3" y="10"/>
  <rect width="1" height="1" x="4" y="10"/>
  <rect width="1" height="1" x="5" y="10"/>
  <rect width="1" height="1" x="6" y="10" fill="#333"/>
  <rect width="1" height="1" x="8" y="10"/>
  <rect width="1" height="1" x="9" y="10"/>
  <rect width="1" height="1" x="10" y="10"/>
  <rect width="1" height="1" y="11"/>
  <rect width="1" height="1" x="1" y="11"/>
  <rect width="1" height="1" x="2" y="11"/>
  <rect width="1" height="1" x="3" y="11"/>
  <rect width="1" height="1" x="4" y="11"/>
  <rect width="1" height="1" x="5" y="11"/>
  <rect width="1" height="1" x="6" y="11"/>
  <rect width="1" height="1" x="7" y="11" fill="#333"/>
  <rect width="1" height="1" y="12"/>
  <rect width="1" height="1" x="1" y="12"/>
  <rect width="1" height="1" x="2" y="12"/>
  <rect width="1" height="1" x="3" y="12"/>
  <rect width="1" height="1" x="4" y="12"/>
  <rect width="1" height="1" x="5" y="12"/>
  <rect width="1" height="1" x="6" y="12"/>
  <rect width="1" height="1" x="7" y="12"/>
  <rect width="1" height="1" x="8" y="12" fill="#333"/>
</svg>
