<svg xmlns="http://www.w3.org/2000/svg" width="156" height="156" class="go-anchor"><style>.go-anchor:hover{cursor:pointer}.go-anchor rect{transition:all .1s ease-in-out}.go-anchor:hover rect{animation-name:logo-0;animation-duration:.7s;animation-iteration-count:infinite}.go-anchor:hover rect[fill="#1a1a1a"]{animation-name:logo-10}.go-anchor:hover rect[fill="#333"]{animation-name:logo-15}.go-anchor:hover rect[fill="#4d4d4d"]{animation-name:logo-20}.go-anchor:hover rect[fill="#666"]{animation-name:logo-30}.go-anchor:hover rect[fill="#26EF00"]{animation-name:logo-eye}.go-anchor:hover rect[fill="#26E400"]{animation-name:logo-eye-core}.go-anchor rect:nth-child(1){animation-duration:.71s}.go-anchor rect:nth-child(2){animation-duration:.72s}.go-anchor rect:nth-child(3){animation-duration:.73s}.go-anchor rect:nth-child(4){animation-duration:.74s}.go-anchor rect:nth-child(5){animation-duration:.75s}.go-anchor rect:nth-child(6){animation-duration:.76s}.go-anchor rect:nth-child(7){animation-duration:.77s}.go-anchor rect:nth-child(8){animation-duration:.78s}.go-anchor rect:nth-child(9){animation-duration:.79s}.go-anchor rect:nth-child(10){animation-duration:.8s}.go-anchor rect:nth-child(11){animation-duration:.81s}.go-anchor rect:nth-child(12){animation-duration:.82s}.go-anchor rect:nth-child(13){animation-duration:.83s}.go-anchor rect:nth-child(14){animation-duration:.84s}.go-anchor rect:nth-child(15){animation-duration:.85s}.go-anchor rect:nth-child(16){animation-duration:.86s}.go-anchor rect:nth-child(17){animation-duration:.87s}.go-anchor rect:nth-child(18){animation-duration:.88s}.go-anchor rect:nth-child(19){animation-duration:.89s}.go-anchor rect:nth-child(20){animation-duration:.9s}.go-anchor rect:nth-child(21){animation-duration:.91s}.go-anchor rect:nth-child(22){animation-duration:.92s}.go-anchor rect:nth-child(23){animation-duration:.93s}.go-anchor rect:nth-child(24){animation-duration:.94s}.go-anchor rect:nth-child(25){animation-duration:.95s}.go-anchor rect:nth-child(26){animation-duration:.96s}.go-anchor rect:nth-child(27){animation-duration:.97s}.go-anchor rect:nth-child(28){animation-duration:.98s}.go-anchor rect:nth-child(29){animation-duration:.99s}.go-anchor rect:nth-child(30){animation-duration:1s}.go-anchor rect:nth-child(31){animation-duration:1.01s}.go-anchor rect:nth-child(32){animation-duration:1.02s}.go-anchor rect:nth-child(33){animation-duration:1.03s}.go-anchor rect:nth-child(34){animation-duration:1.04s}.go-anchor rect:nth-child(35){animation-duration:1.05s}.go-anchor rect:nth-child(36){animation-duration:1.06s}.go-anchor rect:nth-child(37){animation-duration:1.07s}.go-anchor rect:nth-child(38){animation-duration:1.08s}.go-anchor rect:nth-child(39){animation-duration:1.09s}.go-anchor rect:nth-child(40){animation-duration:1.1s}.go-anchor rect:nth-child(41){animation-duration:1.11s}.go-anchor rect:nth-child(42){animation-duration:1.12s}.go-anchor rect:nth-child(43){animation-duration:1.13s}.go-anchor rect:nth-child(44){animation-duration:1.14s}.go-anchor rect:nth-child(45){animation-duration:1.15s}.go-anchor rect:nth-child(46){animation-duration:1.16s}.go-anchor rect:nth-child(47){animation-duration:1.17s}.go-anchor rect:nth-child(48){animation-duration:1.18s}.go-anchor rect:nth-child(49){animation-duration:1.19s}.go-anchor rect:nth-child(50){animation-duration:1.2s}.go-anchor rect:nth-child(51){animation-duration:1.21s}.go-anchor rect:nth-child(52){animation-duration:1.22s}.go-anchor rect:nth-child(53){animation-duration:1.23s}.go-anchor rect:nth-child(54){animation-duration:1.24s}.go-anchor rect:nth-child(55){animation-duration:1.25s}.go-anchor rect:nth-child(56){animation-duration:1.26s}.go-anchor rect:nth-child(57){animation-duration:1.27s}.go-anchor rect:nth-child(58){animation-duration:1.28s}.go-anchor rect:nth-child(59){animation-duration:1.29s}.go-anchor rect:nth-child(60){animation-duration:1.3s}.go-anchor rect:nth-child(61){animation-duration:1.31s}.go-anchor rect:nth-child(62){animation-duration:1.32s}.go-anchor rect:nth-child(63){animation-duration:1.33s}.go-anchor rect:nth-child(64){animation-duration:1.34s}.go-anchor rect:nth-child(65){animation-duration:1.35s}.go-anchor rect:nth-child(66){animation-duration:1.36s}.go-anchor rect:nth-child(67){animation-duration:1.37s}.go-anchor rect:nth-child(68){animation-duration:1.38s}.go-anchor rect:nth-child(69){animation-duration:1.39s}.go-anchor rect:nth-child(70){animation-duration:1.4s}.go-anchor rect:nth-child(71){animation-duration:1.41s}.go-anchor rect:nth-child(72){animation-duration:1.42s}.go-anchor rect:nth-child(73){animation-duration:1.43s}.go-anchor rect:nth-child(74){animation-duration:1.44s}.go-anchor rect:nth-child(75){animation-duration:1.45s}.go-anchor rect:nth-child(76){animation-duration:1.46s}.go-anchor rect:nth-child(77){animation-duration:1.47s}.go-anchor rect:nth-child(78){animation-duration:1.48s}.go-anchor rect:nth-child(79){animation-duration:1.49s}.go-anchor rect:nth-child(80){animation-duration:1.5s}.go-anchor rect:nth-child(81){animation-duration:1.51s}.go-anchor rect:nth-child(82){animation-duration:1.52s}.go-anchor rect:nth-child(83){animation-duration:1.53s}.go-anchor rect:nth-child(84){animation-duration:1.54s}.go-anchor rect:nth-child(85){animation-duration:1.55s}.go-anchor rect:nth-child(86){animation-duration:1.56s}.go-anchor rect:nth-child(87){animation-duration:1.57s}.go-anchor rect:nth-child(88){animation-duration:1.58s}.go-anchor rect:nth-child(89){animation-duration:1.59s}.go-anchor rect:nth-child(90){animation-duration:1.6s}.go-anchor rect:nth-child(91){animation-duration:1.61s}.go-anchor rect:nth-child(92){animation-duration:1.62s}.go-anchor rect:nth-child(93){animation-duration:1.63s}.go-anchor rect:nth-child(94){animation-duration:1.64s}.go-anchor rect:nth-child(95){animation-duration:1.65s}.go-anchor rect:nth-child(96){animation-duration:1.66s}.go-anchor rect:nth-child(97){animation-duration:1.67s}.go-anchor rect:nth-child(98){animation-duration:1.68s}.go-anchor rect:nth-child(99){animation-duration:1.69s}.go-anchor rect:nth-child(100){animation-duration:1.7s}.go-anchor rect:nth-child(101){animation-duration:1.71s}.go-anchor rect:nth-child(102){animation-duration:1.72s}.go-anchor rect:nth-child(103){animation-duration:1.73s}.go-anchor rect:nth-child(104){animation-duration:1.74s}.go-anchor rect:nth-child(105){animation-duration:1.75s}.go-anchor rect:nth-child(106){animation-duration:1.76s}.go-anchor rect:nth-child(107){animation-duration:1.77s}.go-anchor rect:nth-child(108){animation-duration:1.78s}@-moz-keyframes logo-0{20%{fill:#e92c6c}}@-webkit-keyframes logo-0{20%{fill:#e92c6c}}@-o-keyframes logo-0{20%{fill:#e92c6c}}@keyframes logo-0{20%{fill:#e92c6c}}@-moz-keyframes logo-10{20%{fill:#eb417b}}@-webkit-keyframes logo-10{20%{fill:#eb417b}}@-o-keyframes logo-10{20%{fill:#eb417b}}@keyframes logo-10{20%{fill:#eb417b}}@-moz-keyframes logo-15{20%{fill:#ec4c82}}@-webkit-keyframes logo-15{20%{fill:#ec4c82}}@-o-keyframes logo-15{20%{fill:#ec4c82}}@keyframes logo-15{20%{fill:#ec4c82}}@-moz-keyframes logo-20{20%{fill:#ed5689}}@-webkit-keyframes logo-20{20%{fill:#ed5689}}@-o-keyframes logo-20{20%{fill:#ed5689}}@keyframes logo-20{20%{fill:#ed5689}}@-moz-keyframes logo-30{20%{fill:#f06b98}}@-webkit-keyframes logo-30{20%{fill:#f06b98}}@-o-keyframes logo-30{20%{fill:#f06b98}}@keyframes logo-30{20%{fill:#f06b98}}@-moz-keyframes logo-eye{20%{fill:#ffe270}}@-webkit-keyframes logo-eye{20%{fill:#ffe270}}@-o-keyframes logo-eye{20%{fill:#ffe270}}@keyframes logo-eye{20%{fill:#ffe270}}@-moz-keyframes logo-eye-core{20%{fill:#f1e05a}}@-webkit-keyframes logo-eye-core{20%{fill:#f1e05a}}@-o-keyframes logo-eye-core{20%{fill:#f1e05a}}@keyframes logo-eye-core{20%{fill:#f1e05a}}</style><rect width="12" height="12" x="132" fill="#666"/><rect width="12" height="12" x="144" fill="#1a1a1a"/><rect width="12" height="12" x="120" y="12" fill="#4d4d4d"/><rect width="12" height="12" x="132" y="12"/><rect width="12" height="12" x="36" y="24" fill="#333"/><rect width="12" height="12" x="48" y="24"/><rect width="12" height="12" x="60" y="24" fill="#1a1a1a"/><rect width="12" height="12" x="84" y="24" fill="#1a1a1a"/><rect width="12" height="12" x="108" y="24" fill="#333"/><rect width="12" height="12" x="120" y="24"/><rect width="12" height="12" x="24" y="36" fill="#333"/><rect width="12" height="12" x="36" y="36"/><rect width="12" height="12" x="48" y="36"/><rect width="12" height="12" x="60" y="36"/><rect width="12" height="12" x="72" y="36"/><rect width="12" height="12" x="84" y="36"/><rect width="12" height="12" x="96" y="36"/><rect width="12" height="12" x="108" y="36"/><rect width="12" height="12" x="12" y="48" fill="#333"/><rect width="12" height="12" x="24" y="48" fill="#1a1a1a"/><rect width="12" height="12" x="36" y="48"/><rect width="12" height="12" x="48" y="48"/><rect width="12" height="12" x="60" y="48"/><rect width="12" height="12" x="72" y="48"/><rect width="12" height="12" x="84" y="48"/><rect width="12" height="12" x="96" y="48"/><rect width="12" height="12" x="108" y="48"/><rect width="12" height="12" y="60" fill="#333"/><rect width="12" height="12" x="12" y="60" fill="#1a1a1a"/><rect width="12" height="12" x="24" y="60"/><rect width="12" height="12" x="36" y="60"/><rect width="12" height="12" x="48" y="60"/><rect width="12" height="12" x="60" y="60"/><rect width="12" height="12" x="72" y="60" fill="#26EF00"/><rect width="12" height="12" x="84" y="60" fill="#26E400"/><rect width="12" height="12" x="96" y="60"/><rect width="12" height="12" x="108" y="60"/><rect width="12" height="12" x="120" y="60" fill="#1a1a1a"/><rect width="12" height="12" y="72"/><rect width="12" height="12" x="12" y="72"/><rect width="12" height="12" x="24" y="72"/><rect width="12" height="12" x="36" y="72"/><rect width="12" height="12" x="48" y="72"/><rect width="12" height="12" x="60" y="72"/><rect width="12" height="12" x="72" y="72" fill="#26EF00"/><rect width="12" height="12" x="84" y="72" fill="#26EF00"/><rect width="12" height="12" x="96" y="72"/><rect width="12" height="12" x="108" y="72"/><rect width="12" height="12" y="84"/><rect width="12" height="12" x="12" y="84"/><rect width="12" height="12" x="24" y="84"/><rect width="12" height="12" x="36" y="84"/><rect width="12" height="12" x="48" y="84"/><rect width="12" height="12" x="60" y="84"/><rect width="12" height="12" x="72" y="84"/><rect width="12" height="12" x="84" y="84"/><rect width="12" height="12" x="96" y="84"/><rect width="12" height="12" x="108" y="84"/><rect width="12" height="12" y="96"/><rect width="12" height="12" x="12" y="96"/><rect width="12" height="12" x="24" y="96"/><rect width="12" height="12" x="36" y="96"/><rect width="12" height="12" x="48" y="96"/><rect width="12" height="12" x="60" y="96"/><rect width="12" height="12" x="72" y="96"/><rect width="12" height="12" x="84" y="96"/><rect width="12" height="12" x="96" y="96"/><rect width="12" height="12" x="108" y="96"/><rect width="12" height="12" x="120" y="96" fill="#333"/><rect width="12" height="12" y="108"/><rect width="12" height="12" x="12" y="108"/><rect width="12" height="12" x="24" y="108"/><rect width="12" height="12" x="36" y="108"/><rect width="12" height="12" x="48" y="108"/><rect width="12" height="12" x="60" y="108"/><rect width="12" height="12" x="72" y="108"/><rect width="12" height="12" x="84" y="108"/><rect width="12" height="12" x="96" y="108"/><rect width="12" height="12" x="108" y="108"/><rect width="12" height="12" x="120" y="108"/><rect width="12" height="12" y="120"/><rect width="12" height="12" x="12" y="120"/><rect width="12" height="12" x="24" y="120"/><rect width="12" height="12" x="36" y="120"/><rect width="12" height="12" x="48" y="120"/><rect width="12" height="12" x="60" y="120"/><rect width="12" height="12" x="72" y="120" fill="#333"/><rect width="12" height="12" x="96" y="120"/><rect width="12" height="12" x="108" y="120"/><rect width="12" height="12" x="120" y="120"/><rect width="12" height="12" y="132"/><rect width="12" height="12" x="12" y="132"/><rect width="12" height="12" x="24" y="132"/><rect width="12" height="12" x="36" y="132"/><rect width="12" height="12" x="48" y="132"/><rect width="12" height="12" x="60" y="132"/><rect width="12" height="12" x="72" y="132"/><rect width="12" height="12" x="84" y="132" fill="#333"/><rect width="12" height="12" y="144"/><rect width="12" height="12" x="12" y="144"/><rect width="12" height="12" x="24" y="144"/><rect width="12" height="12" x="36" y="144"/><rect width="12" height="12" x="48" y="144"/><rect width="12" height="12" x="60" y="144"/><rect width="12" height="12" x="72" y="144"/><rect width="12" height="12" x="84" y="144"/><rect width="12" height="12" x="96" y="144" fill="#333"/><a xmlns="http://www.w3.org/2000/svg" id="anchor" xlink:href="/" xmlns:xlink="http://www.w3.org/1999/xlink" target="_top"><rect x="0" y="0" width="100%" height="100%" fill-opacity="0"/></a></svg>
