<svg xmlns="http://www.w3.org/2000/svg" xmlns:xlink="http://www.w3.org/1999/xlink" width="156" height="156" viewBox="0 0 13 13" shape-rendering="crispEdges" aria-hidden="true" class="go-logo">
  <rect width="1" height="1" x="11" fill="#666"></rect>
  <rect width="1" height="1" x="12" fill="#1a1a1a"></rect>
  <rect width="1" height="1" y="1" x="10" fill="#4d4d4d"></rect>
  <rect width="1" height="1" y="1" x="11"></rect>
  <rect width="1" height="1" y="2" x="3" fill="#333"></rect>
  <rect width="1" height="1" y="2" x="4"></rect>
  <rect width="1" height="1" y="2" x="5" fill="#1a1a1a"></rect>
  <rect width="1" height="1" y="2" x="7" fill="#1a1a1a"></rect>
  <rect width="1" height="1" y="2" x="9" fill="#333"></rect>
  <rect width="1" height="1" y="2" x="10"></rect>
  <rect width="1" height="1" y="3" x="2" fill="#333"></rect>
  <rect width="1" height="1" y="3" x="3"></rect>
  <rect width="1" height="1" y="3" x="4"></rect>
  <rect width="1" height="1" y="3" x="5"></rect>
  <rect width="1" height="1" y="3" x="6"></rect>
  <rect width="1" height="1" y="3" x="7"></rect>
  <rect width="1" height="1" y="3" x="8"></rect>
  <rect width="1" height="1" y="3" x="9"></rect>
  <rect width="1" height="1" y="4" x="1" fill="#333"></rect>
  <rect width="1" height="1" y="4" x="2" fill="#1a1a1a"></rect>
  <rect width="1" height="1" y="4" x="3"></rect>
  <rect width="1" height="1" y="4" x="4"></rect>
  <rect width="1" height="1" y="4" x="5"></rect>
  <rect width="1" height="1" y="4" x="6"></rect>
  <rect width="1" height="1" y="4" x="7"></rect>
  <rect width="1" height="1" y="4" x="8"></rect>
  <rect width="1" height="1" y="4" x="9"></rect>
  <rect width="1" height="1" y="5" fill="#333"></rect>
  <rect width="1" height="1" y="5" x="1" fill="#1a1a1a"></rect>
  <rect width="1" height="1" y="5" x="2"></rect>
  <rect width="1" height="1" y="5" x="3"></rect>
  <rect width="1" height="1" y="5" x="4"></rect>
  <rect width="1" height="1" y="5" x="5"></rect>
  <rect width="1" height="1" y="5" x="6" fill="#26ef00"></rect>
  <rect width="1" height="1" y="5" x="7" fill="#26e400"></rect>
  <rect width="1" height="1" y="5" x="8"></rect>
  <rect width="1" height="1" y="5" x="9"></rect>
  <rect width="1" height="1" y="5" x="10" fill="#1a1a1a"></rect>
  <rect width="1" height="1" y="6"></rect>
  <rect width="1" height="1" y="6" x="1"></rect>
  <rect width="1" height="1" y="6" x="2"></rect>
  <rect width="1" height="1" y="6" x="3"></rect>
  <rect width="1" height="1" y="6" x="4"></rect>
  <rect width="1" height="1" y="6" x="5"></rect>
  <rect width="1" height="1" y="6" x="6" fill="#26ef00"></rect>
  <rect width="1" height="1" y="6" x="7" fill="#26ef00"></rect>
  <rect width="1" height="1" y="6" x="8"></rect>
  <rect width="1" height="1" y="6" x="9"></rect>
  <rect width="1" height="1" y="7"></rect>
  <rect width="1" height="1" y="7" x="1"></rect>
  <rect width="1" height="1" y="7" x="2"></rect>
  <rect width="1" height="1" y="7" x="3"></rect>
  <rect width="1" height="1" y="7" x="4"></rect>
  <rect width="1" height="1" y="7" x="5"></rect>
  <rect width="1" height="1" y="7" x="6"></rect>
  <rect width="1" height="1" y="7" x="7"></rect>
  <rect width="1" height="1" y="7" x="8"></rect>
  <rect width="1" height="1" y="7" x="9"></rect>
  <rect width="1" height="1" y="8"></rect>
  <rect width="1" height="1" y="8" x="1"></rect>
  <rect width="1" height="1" y="8" x="2"></rect>
  <rect width="1" height="1" y="8" x="3"></rect>
  <rect width="1" height="1" y="8" x="4"></rect>
  <rect width="1" height="1" y="8" x="5"></rect>
  <rect width="1" height="1" y="8" x="6"></rect>
  <rect width="1" height="1" y="8" x="7"></rect>
  <rect width="1" height="1" y="8" x="8"></rect>
  <rect width="1" height="1" y="8" x="9"></rect>
  <rect width="1" height="1" y="8" x="10" fill="#333"></rect>
  <rect width="1" height="1" y="9"></rect>
  <rect width="1" height="1" y="9" x="1"></rect>
  <rect width="1" height="1" y="9" x="2"></rect>
  <rect width="1" height="1" y="9" x="3"></rect>
  <rect width="1" height="1" y="9" x="4"></rect>
  <rect width="1" height="1" y="9" x="5"></rect>
  <rect width="1" height="1" y="9" x="6"></rect>
  <rect width="1" height="1" y="9" x="7"></rect>
  <rect width="1" height="1" y="9" x="8"></rect>
  <rect width="1" height="1" y="9" x="9"></rect>
  <rect width="1" height="1" y="9" x="10"></rect>
  <rect width="1" height="1" y="10"></rect>
  <rect width="1" height="1" y="10" x="1"></rect>
  <rect width="1" height="1" y="10" x="2"></rect>
  <rect width="1" height="1" y="10" x="3"></rect>
  <rect width="1" height="1" y="10" x="4"></rect>
  <rect width="1" height="1" y="10" x="5"></rect>
  <rect width="1" height="1" y="10" x="6" fill="#333"></rect>
  <rect width="1" height="1" y="10" x="8"></rect>
  <rect width="1" height="1" y="10" x="9"></rect>
  <rect width="1" height="1" y="10" x="10"></rect>
  <rect width="1" height="1" y="11"></rect>
  <rect width="1" height="1" y="11" x="1"></rect>
  <rect width="1" height="1" y="11" x="2"></rect>
  <rect width="1" height="1" y="11" x="3"></rect>
  <rect width="1" height="1" y="11" x="4"></rect>
  <rect width="1" height="1" y="11" x="5"></rect>
  <rect width="1" height="1" y="11" x="6"></rect>
  <rect width="1" height="1" y="11" x="7" fill="#333"></rect>
  <rect width="1" height="1" y="12"></rect>
  <rect width="1" height="1" y="12" x="1"></rect>
  <rect width="1" height="1" y="12" x="2"></rect>
  <rect width="1" height="1" y="12" x="3"></rect>
  <rect width="1" height="1" y="12" x="4"></rect>
  <rect width="1" height="1" y="12" x="5"></rect>
  <rect width="1" height="1" y="12" x="6"></rect>
  <rect width="1" height="1" y="12" x="7"></rect>
  <rect width="1" height="1" y="12" x="8" fill="#333"></rect><a xlink:href="/" aria-hidden="false" role="link" title="Pony Foo">
    <rect width="13" height="13" opacity="0" role="img"></rect></a>
  <image src="/img/logos/original.png" alt="Pony Foo" class="go-logo-image"></image>
</svg>
