<svg xmlns="http://www.w3.org/2000/svg" xmlns:xlink="http://www.w3.org/1999/xlink" width="156" height="156" viewBox="0 0 13 13" shape-rendering="crispEdges" aria-hidden="true" class="go-logo">
  <rect width="1" height="1" x="11" fill="#6ecce2"></rect>
  <rect width="1" height="1" x="12" fill="#6ecce2"></rect>
  <rect width="1" height="1" y="1" x="10" fill="#1686a2"></rect>
  <rect width="1" height="1" y="1" x="11" fill="#1686a2"></rect>
  <rect width="1" height="1" y="2" x="3" fill="#1a4d7f"></rect>
  <rect width="1" height="1" y="2" x="4" fill="#1a4d7f"></rect>
  <rect width="1" height="1" y="2" x="5" fill="#1a4d7f"></rect>
  <rect width="1" height="1" y="2" x="7" fill="#1a4d7f"></rect>
  <rect width="1" height="1" y="2" x="9" fill="#1a4d7f"></rect>
  <rect width="1" height="1" y="2" x="10" fill="#1a4d7f"></rect>
  <rect width="1" height="1" y="3" x="2" fill="#55acee"></rect>
  <rect width="1" height="1" y="3" x="3" fill="#55acee"></rect>
  <rect width="1" height="1" y="3" x="4" fill="#55acee"></rect>
  <rect width="1" height="1" y="3" x="5" fill="#55acee"></rect>
  <rect width="1" height="1" y="3" x="6" fill="#55acee"></rect>
  <rect width="1" height="1" y="3" x="7" fill="#55acee"></rect>
  <rect width="1" height="1" y="3" x="8" fill="#55acee"></rect>
  <rect width="1" height="1" y="3" x="9" fill="#55acee"></rect>
  <rect width="1" height="1" y="4" x="1" fill="#c3f0c1"></rect>
  <rect width="1" height="1" y="4" x="2" fill="#c3f0c1"></rect>
  <rect width="1" height="1" y="4" x="3" fill="#c3f0c1"></rect>
  <rect width="1" height="1" y="4" x="4" fill="#c3f0c1"></rect>
  <rect width="1" height="1" y="4" x="5" fill="#c3f0c1"></rect>
  <rect width="1" height="1" y="4" x="6" fill="#c3f0c1"></rect>
  <rect width="1" height="1" y="4" x="7" fill="#c3f0c1"></rect>
  <rect width="1" height="1" y="4" x="8" fill="#c3f0c1"></rect>
  <rect width="1" height="1" y="4" x="9" fill="#c3f0c1"></rect>
  <rect width="1" height="1" y="5" fill="#1bc211"></rect>
  <rect width="1" height="1" y="5" x="1" fill="#1bc211"></rect>
  <rect width="1" height="1" y="5" x="2" fill="#1bc211"></rect>
  <rect width="1" height="1" y="5" x="3" fill="#1bc211"></rect>
  <rect width="1" height="1" y="5" x="4" fill="#1bc211"></rect>
  <rect width="1" height="1" y="5" x="5" fill="#1bc211"></rect>
  <rect width="1" height="1" y="5" x="6" fill="#1bc211"></rect>
  <rect width="1" height="1" y="5" x="7" fill="#1bc211"></rect>
  <rect width="1" height="1" y="5" x="8" fill="#1bc211"></rect>
  <rect width="1" height="1" y="5" x="9" fill="#1bc211"></rect>
  <rect width="1" height="1" y="5" x="10" fill="#1bc211"></rect>
  <rect width="1" height="1" y="6" fill="#900070"></rect>
  <rect width="1" height="1" y="6" x="1" fill="#900070"></rect>
  <rect width="1" height="1" y="6" x="2" fill="#900070"></rect>
  <rect width="1" height="1" y="6" x="3" fill="#900070"></rect>
  <rect width="1" height="1" y="6" x="4" fill="#900070"></rect>
  <rect width="1" height="1" y="6" x="5" fill="#900070"></rect>
  <rect width="1" height="1" y="6" x="6" fill="#900070"></rect>
  <rect width="1" height="1" y="6" x="7" fill="#900070"></rect>
  <rect width="1" height="1" y="6" x="8" fill="#900070"></rect>
  <rect width="1" height="1" y="6" x="9" fill="#900070"></rect>
  <rect width="1" height="1" y="7" fill="#e92c6c"></rect>
  <rect width="1" height="1" y="7" x="1" fill="#e92c6c"></rect>
  <rect width="1" height="1" y="7" x="2" fill="#e92c6c"></rect>
  <rect width="1" height="1" y="7" x="3" fill="#e92c6c"></rect>
  <rect width="1" height="1" y="7" x="4" fill="#e92c6c"></rect>
  <rect width="1" height="1" y="7" x="5" fill="#e92c6c"></rect>
  <rect width="1" height="1" y="7" x="6" fill="#e92c6c"></rect>
  <rect width="1" height="1" y="7" x="7" fill="#e92c6c"></rect>
  <rect width="1" height="1" y="7" x="8" fill="#e92c6c"></rect>
  <rect width="1" height="1" y="7" x="9" fill="#e92c6c"></rect>
  <rect width="1" height="1" y="8" fill="#f8ab6f"></rect>
  <rect width="1" height="1" y="8" x="1" fill="#f8ab6f"></rect>
  <rect width="1" height="1" y="8" x="2" fill="#f8ab6f"></rect>
  <rect width="1" height="1" y="8" x="3" fill="#f8ab6f"></rect>
  <rect width="1" height="1" y="8" x="4" fill="#f8ab6f"></rect>
  <rect width="1" height="1" y="8" x="5" fill="#f8ab6f"></rect>
  <rect width="1" height="1" y="8" x="6" fill="#f8ab6f"></rect>
  <rect width="1" height="1" y="8" x="7" fill="#f8ab6f"></rect>
  <rect width="1" height="1" y="8" x="8" fill="#f8ab6f"></rect>
  <rect width="1" height="1" y="8" x="9" fill="#f8ab6f"></rect>
  <rect width="1" height="1" y="8" x="10" fill="#f8ab6f"></rect>
  <rect width="1" height="1" y="9" fill="#f3720d"></rect>
  <rect width="1" height="1" y="9" x="1" fill="#f3720d"></rect>
  <rect width="1" height="1" y="9" x="2" fill="#f3720d"></rect>
  <rect width="1" height="1" y="9" x="3" fill="#f3720d"></rect>
  <rect width="1" height="1" y="9" x="4" fill="#f3720d"></rect>
  <rect width="1" height="1" y="9" x="5" fill="#f3720d"></rect>
  <rect width="1" height="1" y="9" x="6" fill="#f3720d"></rect>
  <rect width="1" height="1" y="9" x="7" fill="#f3720d"></rect>
  <rect width="1" height="1" y="9" x="8" fill="#f3720d"></rect>
  <rect width="1" height="1" y="9" x="9" fill="#f3720d"></rect>
  <rect width="1" height="1" y="9" x="10" fill="#f3720d"></rect>
  <rect width="1" height="1" y="10" fill="#ffe270"></rect>
  <rect width="1" height="1" y="10" x="1" fill="#ffe270"></rect>
  <rect width="1" height="1" y="10" x="2" fill="#ffe270"></rect>
  <rect width="1" height="1" y="10" x="3" fill="#ffe270"></rect>
  <rect width="1" height="1" y="10" x="4" fill="#ffe270"></rect>
  <rect width="1" height="1" y="10" x="5" fill="#ffe270"></rect>
  <rect width="1" height="1" y="10" x="6" fill="#ffe270"></rect>
  <rect width="1" height="1" y="10" x="8" fill="#ffe270"></rect>
  <rect width="1" height="1" y="10" x="9" fill="#ffe270"></rect>
  <rect width="1" height="1" y="10" x="10" fill="#ffe270"></rect>
  <rect width="1" height="1" y="11" fill="#ff0056"></rect>
  <rect width="1" height="1" y="11" x="1" fill="#ff0056"></rect>
  <rect width="1" height="1" y="11" x="2" fill="#ff0056"></rect>
  <rect width="1" height="1" y="11" x="3" fill="#ff0056"></rect>
  <rect width="1" height="1" y="11" x="4" fill="#ff0056"></rect>
  <rect width="1" height="1" y="11" x="5" fill="#ff0056"></rect>
  <rect width="1" height="1" y="11" x="6" fill="#ff0056"></rect>
  <rect width="1" height="1" y="11" x="7" fill="#ff0056"></rect>
  <rect width="1" height="1" y="12" fill="#f1e05a"></rect>
  <rect width="1" height="1" y="12" x="1" fill="#f1e05a"></rect>
  <rect width="1" height="1" y="12" x="2" fill="#f1e05a"></rect>
  <rect width="1" height="1" y="12" x="3" fill="#f1e05a"></rect>
  <rect width="1" height="1" y="12" x="4" fill="#f1e05a"></rect>
  <rect width="1" height="1" y="12" x="5" fill="#f1e05a"></rect>
  <rect width="1" height="1" y="12" x="6" fill="#f1e05a"></rect>
  <rect width="1" height="1" y="12" x="7" fill="#f1e05a"></rect>
  <rect width="1" height="1" y="12" x="8" fill="#f1e05a"></rect><a xlink:href="/" aria-hidden="false" role="link" title="Pony Foo">
    <rect width="13" height="13" opacity="0" role="img"></rect></a>
  <image src="/img/logos/rainbow.png" alt="Pony Foo" class="go-logo-image"></image>
</svg>
