<svg xmlns:rdf="http://www.w3.org/1999/02/22-rdf-syntax-ns#" xmlns="http://www.w3.org/2000/svg" height="640" width="640" version="1.1" xmlns:cc="http://creativecommons.org/ns#" xmlns:dc="http://purl.org/dc/elements/1.1/">
 <g>
  <rect height="40" width="40" y="120" x="440" fill="#666"/>
  <rect height="40" width="40" y="120" x="480" fill="#1a1a1a"/>

  <rect height="40" width="40" y="160" x="400" fill="#4d4d4d"/>
  <rect height="40" width="40" y="160" x="440" fill="#000"/>

  <rect height="40" width="40" y="200" x="120" fill="#333"/>
  <rect height="40" width="40" y="200" x="160" fill="#000"/>
  <rect height="40" width="40" y="200" x="200" fill="#1a1a1a"/>
  <rect height="40" width="40" y="200" x="280" fill="#1a1a1a"/>
  <rect height="40" width="40" y="200" x="360" fill="#333"/>
  <rect height="40" width="40" y="200" x="400" fill="#000"/>

  <rect height="40" width="40" y="240" x="80" fill="#333"/>
  <rect height="40" width="40" y="240" x="120" fill="#000"/>
  <rect height="40" width="40" y="240" x="160" fill="#000"/>
  <rect height="40" width="40" y="240" x="200" fill="#000"/>
  <rect height="40" width="40" y="240" x="240" fill="#000"/>
  <rect height="40" width="40" y="240" x="280" fill="#000"/>
  <rect height="40" width="40" y="240" x="320" fill="#000"/>
  <rect height="40" width="40" y="240" x="360" fill="#000"/>

  <rect height="40" width="40" y="280" x="40" fill="#333"/>
  <rect height="40" width="40" y="280" x="80" fill="#1a1a1a"/>
  <rect height="40" width="40" y="280" x="120" fill="#000"/>
  <rect height="40" width="40" y="280" x="160" fill="#000"/>
  <rect height="40" width="40" y="280" x="200" fill="#000"/>
  <rect height="40" width="40" y="280" x="240" fill="#000"/>
  <rect height="40" width="40" y="280" x="280" fill="#000"/>
  <rect height="40" width="40" y="280" x="320" fill="#000"/>
  <rect height="40" width="40" y="280" x="360" fill="#000"/>

  <rect height="40" width="40" y="320" x="0" fill="#333"/>
  <rect height="40" width="40" y="320" x="40" fill="#1a1a1a"/>
  <rect height="40" width="40" y="320" x="80" fill="#000"/>
  <rect height="40" width="40" y="320" x="120" fill="#000"/>
  <rect height="40" width="40" y="320" x="160" fill="#000"/>
  <rect height="40" width="40" y="320" x="200" fill="#000"/>
  <rect height="40" width="40" y="320" x="240" fill="#26EF00"/>
  <rect height="40" width="40" y="320" x="280" fill="#26E400"/>
  <rect height="40" width="40" y="320" x="320" fill="#000"/>
  <rect height="40" width="40" y="320" x="360" fill="#000"/>
  <rect height="40" width="40" y="320" x="400" fill="#1a1a1a"/>

  <rect height="40" width="40" y="360" x="0" fill="#000"/>
  <rect height="40" width="40" y="360" x="40" fill="#000"/>
  <rect height="40" width="40" y="360" x="80" fill="#000"/>
  <rect height="40" width="40" y="360" x="120" fill="#000"/>
  <rect height="40" width="40" y="360" x="160" fill="#000"/>
  <rect height="40" width="40" y="360" x="200" fill="#000"/>
  <rect height="40" width="40" y="360" x="240" fill="#26EF00"/>
  <rect height="40" width="40" y="360" x="280" fill="#26EF00"/>
  <rect height="40" width="40" y="360" x="320" fill="#000"/>
  <rect height="40" width="40" y="360" x="360" fill="#000"/>

  <rect height="40" width="40" y="400" x="0" fill="#000"/>
  <rect height="40" width="40" y="400" x="40" fill="#000"/>
  <rect height="40" width="40" y="400" x="80" fill="#000"/>
  <rect height="40" width="40" y="400" x="120" fill="#000"/>
  <rect height="40" width="40" y="400" x="160" fill="#000"/>
  <rect height="40" width="40" y="400" x="200" fill="#000"/>
  <rect height="40" width="40" y="400" x="240" fill="#000"/>
  <rect height="40" width="40" y="400" x="280" fill="#000"/>
  <rect height="40" width="40" y="400" x="320" fill="#000"/>
  <rect height="40" width="40" y="400" x="360" fill="#000"/>

  <rect height="40" width="40" y="440" x="0" fill="#000"/>
  <rect height="40" width="40" y="440" x="40" fill="#000"/>
  <rect height="40" width="40" y="440" x="80" fill="#000"/>
  <rect height="40" width="40" y="440" x="120" fill="#000"/>
  <rect height="40" width="40" y="440" x="160" fill="#000"/>
  <rect height="40" width="40" y="440" x="200" fill="#000"/>
  <rect height="40" width="40" y="440" x="240" fill="#000"/>
  <rect height="40" width="40" y="440" x="280" fill="#000"/>
  <rect height="40" width="40" y="440" x="320" fill="#000"/>
  <rect height="40" width="40" y="440" x="360" fill="#000"/>
  <rect height="40" width="40" y="440" x="400" fill="#333"/>

  <rect height="40" width="40" y="480" x="0" fill="#000"/>
  <rect height="40" width="40" y="480" x="40" fill="#000"/>
  <rect height="40" width="40" y="480" x="80" fill="#000"/>
  <rect height="40" width="40" y="480" x="120" fill="#000"/>
  <rect height="40" width="40" y="480" x="160" fill="#000"/>
  <rect height="40" width="40" y="480" x="200" fill="#000"/>
  <rect height="40" width="40" y="480" x="240" fill="#000"/>
  <rect height="40" width="40" y="480" x="280" fill="#000"/>
  <rect height="40" width="40" y="480" x="320" fill="#000"/>
  <rect height="40" width="40" y="480" x="360" fill="#000"/>
  <rect height="40" width="40" y="480" x="400" fill="#000"/>

  <rect height="40" width="40" y="520" x="0" fill="#000"/>
  <rect height="40" width="40" y="520" x="40" fill="#000"/>
  <rect height="40" width="40" y="520" x="80" fill="#000"/>
  <rect height="40" width="40" y="520" x="120" fill="#000"/>
  <rect height="40" width="40" y="520" x="160" fill="#000"/>
  <rect height="40" width="40" y="520" x="200" fill="#000"/>
  <rect height="40" width="40" y="520" x="240" fill="#333"/>
  <rect height="40" width="40" y="520" x="320" fill="#000"/>
  <rect height="40" width="40" y="520" x="360" fill="#000"/>
  <rect height="40" width="40" y="520" x="400" fill="#000"/>

  <rect height="40" width="40" y="560" x="0" fill="#000"/>
  <rect height="40" width="40" y="560" x="40" fill="#000"/>
  <rect height="40" width="40" y="560" x="80" fill="#000"/>
  <rect height="40" width="40" y="560" x="120" fill="#000"/>
  <rect height="40" width="40" y="560" x="160" fill="#000"/>
  <rect height="40" width="40" y="560" x="200" fill="#000"/>
  <rect height="40" width="40" y="560" x="240" fill="#000"/>
  <rect height="40" width="40" y="560" x="280" fill="#333"/>

  <rect height="40" width="40" y="600" x="0" fill="#000"/>
  <rect height="40" width="40" y="600" x="40" fill="#000"/>
  <rect height="40" width="40" y="600" x="80" fill="#000"/>
  <rect height="40" width="40" y="600" x="120" fill="#000"/>
  <rect height="40" width="40" y="600" x="160" fill="#000"/>
  <rect height="40" width="40" y="600" x="200" fill="#000"/>
  <rect height="40" width="40" y="600" x="240" fill="#000"/>
  <rect height="40" width="40" y="600" x="280" fill="#000"/>
  <rect height="40" width="40" y="600" x="320" fill="#333"/>
 </g>
</svg>
