<svg xmlns:rdf="http://www.w3.org/1999/02/22-rdf-syntax-ns#" xmlns="http://www.w3.org/2000/svg" height="156" width="156" version="1.1" xmlns:cc="http://creativecommons.org/ns#" xmlns:dc="http://purl.org/dc/elements/1.1/">
 <g>
  <rect height="12" width="12" y="0" x="132" fill="#666"/>
  <rect height="12" width="12" y="0" x="144" fill="#1a1a1a"/>

  <rect height="12" width="12" y="12" x="120" fill="#4d4d4d"/>
  <rect height="12" width="12" y="12" x="132" fill="#000"/>

  <rect height="12" width="12" y="24" x="36" fill="#333"/>
  <rect height="12" width="12" y="24" x="48" fill="#000"/>
  <rect height="12" width="12" y="24" x="60" fill="#1a1a1a"/>
  <rect height="12" width="12" y="24" x="84" fill="#1a1a1a"/>
  <rect height="12" width="12" y="24" x="108" fill="#333"/>
  <rect height="12" width="12" y="24" x="120" fill="#000"/>

  <rect height="12" width="12" y="36" x="24" fill="#333"/>
  <rect height="12" width="12" y="36" x="36" fill="#000"/>
  <rect height="12" width="12" y="36" x="48" fill="#000"/>
  <rect height="12" width="12" y="36" x="60" fill="#000"/>
  <rect height="12" width="12" y="36" x="72" fill="#000"/>
  <rect height="12" width="12" y="36" x="84" fill="#000"/>
  <rect height="12" width="12" y="36" x="96" fill="#000"/>
  <rect height="12" width="12" y="36" x="108" fill="#000"/>

  <rect height="12" width="12" y="48" x="12" fill="#333"/>
  <rect height="12" width="12" y="48" x="24" fill="#1a1a1a"/>
  <rect height="12" width="12" y="48" x="36" fill="#000"/>
  <rect height="12" width="12" y="48" x="48" fill="#000"/>
  <rect height="12" width="12" y="48" x="60" fill="#000"/>
  <rect height="12" width="12" y="48" x="72" fill="#000"/>
  <rect height="12" width="12" y="48" x="84" fill="#000"/>
  <rect height="12" width="12" y="48" x="96" fill="#000"/>
  <rect height="12" width="12" y="48" x="108" fill="#000"/>

  <rect height="12" width="12" y="60" x="0" fill="#333"/>
  <rect height="12" width="12" y="60" x="12" fill="#1a1a1a"/>
  <rect height="12" width="12" y="60" x="24" fill="#000"/>
  <rect height="12" width="12" y="60" x="36" fill="#000"/>
  <rect height="12" width="12" y="60" x="48" fill="#000"/>
  <rect height="12" width="12" y="60" x="60" fill="#000"/>
  <rect height="12" width="12" y="60" x="72" fill="#26EF00"/>
  <rect height="12" width="12" y="60" x="84" fill="#26E400"/>
  <rect height="12" width="12" y="60" x="96" fill="#000"/>
  <rect height="12" width="12" y="60" x="108" fill="#000"/>
  <rect height="12" width="12" y="60" x="120" fill="#1a1a1a"/>

  <rect height="12" width="12" y="72" x="0" fill="#000"/>
  <rect height="12" width="12" y="72" x="12" fill="#000"/>
  <rect height="12" width="12" y="72" x="24" fill="#000"/>
  <rect height="12" width="12" y="72" x="36" fill="#000"/>
  <rect height="12" width="12" y="72" x="48" fill="#000"/>
  <rect height="12" width="12" y="72" x="60" fill="#000"/>
  <rect height="12" width="12" y="72" x="72" fill="#26EF00"/>
  <rect height="12" width="12" y="72" x="84" fill="#26EF00"/>
  <rect height="12" width="12" y="72" x="96" fill="#000"/>
  <rect height="12" width="12" y="72" x="108" fill="#000"/>

  <rect height="12" width="12" y="84" x="0" fill="#000"/>
  <rect height="12" width="12" y="84" x="12" fill="#000"/>
  <rect height="12" width="12" y="84" x="24" fill="#000"/>
  <rect height="12" width="12" y="84" x="36" fill="#000"/>
  <rect height="12" width="12" y="84" x="48" fill="#000"/>
  <rect height="12" width="12" y="84" x="60" fill="#000"/>
  <rect height="12" width="12" y="84" x="72" fill="#000"/>
  <rect height="12" width="12" y="84" x="84" fill="#000"/>
  <rect height="12" width="12" y="84" x="96" fill="#000"/>
  <rect height="12" width="12" y="84" x="108" fill="#000"/>

  <rect height="12" width="12" y="96" x="0" fill="#000"/>
  <rect height="12" width="12" y="96" x="12" fill="#000"/>
  <rect height="12" width="12" y="96" x="24" fill="#000"/>
  <rect height="12" width="12" y="96" x="36" fill="#000"/>
  <rect height="12" width="12" y="96" x="48" fill="#000"/>
  <rect height="12" width="12" y="96" x="60" fill="#000"/>
  <rect height="12" width="12" y="96" x="72" fill="#000"/>
  <rect height="12" width="12" y="96" x="84" fill="#000"/>
  <rect height="12" width="12" y="96" x="96" fill="#000"/>
  <rect height="12" width="12" y="96" x="108" fill="#000"/>
  <rect height="12" width="12" y="96" x="120" fill="#333"/>

  <rect height="12" width="12" y="108" x="0" fill="#000"/>
  <rect height="12" width="12" y="108" x="12" fill="#000"/>
  <rect height="12" width="12" y="108" x="24" fill="#000"/>
  <rect height="12" width="12" y="108" x="36" fill="#000"/>
  <rect height="12" width="12" y="108" x="48" fill="#000"/>
  <rect height="12" width="12" y="108" x="60" fill="#000"/>
  <rect height="12" width="12" y="108" x="72" fill="#000"/>
  <rect height="12" width="12" y="108" x="84" fill="#000"/>
  <rect height="12" width="12" y="108" x="96" fill="#000"/>
  <rect height="12" width="12" y="108" x="108" fill="#000"/>
  <rect height="12" width="12" y="108" x="120" fill="#000"/>

  <rect height="12" width="12" y="120" x="0" fill="#000"/>
  <rect height="12" width="12" y="120" x="12" fill="#000"/>
  <rect height="12" width="12" y="120" x="24" fill="#000"/>
  <rect height="12" width="12" y="120" x="36" fill="#000"/>
  <rect height="12" width="12" y="120" x="48" fill="#000"/>
  <rect height="12" width="12" y="120" x="60" fill="#000"/>
  <rect height="12" width="12" y="120" x="72" fill="#333"/>
  <rect height="12" width="12" y="120" x="96" fill="#000"/>
  <rect height="12" width="12" y="120" x="108" fill="#000"/>
  <rect height="12" width="12" y="120" x="120" fill="#000"/>

  <rect height="12" width="12" y="132" x="0" fill="#000"/>
  <rect height="12" width="12" y="132" x="12" fill="#000"/>
  <rect height="12" width="12" y="132" x="24" fill="#000"/>
  <rect height="12" width="12" y="132" x="36" fill="#000"/>
  <rect height="12" width="12" y="132" x="48" fill="#000"/>
  <rect height="12" width="12" y="132" x="60" fill="#000"/>
  <rect height="12" width="12" y="132" x="72" fill="#000"/>
  <rect height="12" width="12" y="132" x="84" fill="#333"/>

  <rect height="12" width="12" y="144" x="0" fill="#000"/>
  <rect height="12" width="12" y="144" x="12" fill="#000"/>
  <rect height="12" width="12" y="144" x="24" fill="#000"/>
  <rect height="12" width="12" y="144" x="36" fill="#000"/>
  <rect height="12" width="12" y="144" x="48" fill="#000"/>
  <rect height="12" width="12" y="144" x="60" fill="#000"/>
  <rect height="12" width="12" y="144" x="72" fill="#000"/>
  <rect height="12" width="12" y="144" x="84" fill="#000"/>
  <rect height="12" width="12" y="144" x="96" fill="#333"/>
 </g>
</svg>
