<?xml version="1.0" encoding="utf-8"?>
<!-- Generator: Adobe Illustrator 20.0.0, SVG Export Plug-In . SVG Version: 6.00 Build 0)  -->
<!DOCTYPE svg PUBLIC "-//W3C//DTD SVG 1.1//EN" "http://www.w3.org/Graphics/SVG/1.1/DTD/svg11.dtd">
<svg version="1.1" id="Layer_1" xmlns="http://www.w3.org/2000/svg" xmlns:xlink="http://www.w3.org/1999/xlink" x="0px" y="0px"
	 viewBox="0 0 1500 500" style="enable-background:new 0 0 1500 500;" xml:space="preserve">
<style type="text/css">
	.st0{opacity:0.3;fill:#FFFFFF;}
	.st1{fill:url(#SVGID_1_);}
	.st2{fill:#06A49A;}
	.st3{fill:#430737;}
	.st4{fill:#FFFFFF;}
	.st5{fill:none;stroke:#E6E6E6;stroke-width:3;stroke-miterlimit:10;}
	.st6{fill:#FCC12D;}
	.st7{fill:#FFFFFF;stroke:#000000;stroke-miterlimit:10;}
	.st8{fill:#8E197B;}
	.st9{fill:none;stroke:#8E197B;stroke-width:2;stroke-miterlimit:10;}
	.st10{opacity:0.8;}
	.st11{fill:#900070;}
	.st12{fill:none;stroke:#E6E6E6;stroke-width:6;stroke-miterlimit:10;}
	.st13{fill:#F4C1C1;}
	.st14{fill:#355089;}
	.st15{fill:#FFDEDE;}
	.st16{fill:#3B5998;}
	.st17{opacity:0.1;fill:#3B5998;}
	.st18{opacity:0.5;fill:#820065;}
	.st19{fill:#24273D;}
	.st20{opacity:0.3;fill:#6D2286;}
	.st21{fill:#6D2286;}
	.st22{fill:none;stroke:#1A1B23;stroke-miterlimit:10;}
	.st23{fill:#1A1B23;}
	.st24{fill:none;stroke:#F6F6F6;stroke-miterlimit:10;}
	.st25{opacity:0.8;fill:#FFFFFF;}
	.st26{font-family:'PTMono-Regular';}
	.st27{font-size:16px;}
	.st28{letter-spacing:3;}
	.st29{opacity:0.7;fill:#FFFFFF;}
	.st30{opacity:0.2;clip-path:url(#SVGID_5_);fill:#FFFFFF;}
	.st31{opacity:0.2;clip-path:url(#SVGID_7_);fill:#FFFFFF;}
	.st32{fill:none;stroke:#6D2286;stroke-width:15;stroke-miterlimit:10;}
	.st33{opacity:0.4;fill:#6D2286;}
	.st34{fill:#E92B6C;}
	.st35{opacity:0.3;fill:#24273D;}
	.st36{opacity:0.2;clip-path:url(#SVGID_9_);fill:#FFFFFF;}
	.st37{fill:url(#SVGID_10_);}
	.st38{opacity:0.2;clip-path:url(#SVGID_14_);fill:#FFFFFF;}
	.st39{opacity:0.2;clip-path:url(#SVGID_16_);fill:#FFFFFF;}
	.st40{opacity:0.2;clip-path:url(#SVGID_18_);fill:#FFFFFF;}
</style>
<path class="st0" d="M-1800.6,39.9c-82.3-82.3-191.8-127.7-308.2-127.7s-225.9,45.3-308.2,127.7c-82.3,82.3-127.7,191.8-127.7,308.2
	c0,116.4,45.3,225.9,127.7,308.2c82.3,82.3,191.8,127.7,308.2,127.7s225.9-45.3,308.2-127.7c82.3-82.3,127.7-191.8,127.7-308.3
	C-1672.9,231.7-1718.2,122.2-1800.6,39.9z M-1906.6,550.3c-54,54-125.8,83.7-202.2,83.7c-76.4,0-148.2-29.7-202.2-83.7
	c-54-54-83.7-125.8-83.7-202.2S-2365,200-2311,146c54-54,125.8-83.7,202.2-83.7s148.2,29.7,202.2,83.7s83.7,125.8,83.7,202.2
	C-1822.9,424.5-1852.6,496.3-1906.6,550.3z"/>
<path class="st0" d="M-1262.2,146c-54-54-125.8-83.7-202.2-83.7s-148.2,29.7-202.2,83.7c-54,54-83.7,125.8-83.7,202.2
	s29.7,148.2,83.7,202.2c54,54,125.8,83.7,202.2,83.7c76.4,0,148.2-29.7,202.2-83.7c54-54,83.7-125.8,83.7-202.2
	C-1178.5,271.8-1208.2,200-1262.2,146z M-1304.6,507.9c-42.7,42.7-99.4,66.2-159.8,66.2c-60.3,0-117.1-23.5-159.8-66.2
	s-66.2-99.4-66.2-159.8s23.5-117.1,66.2-159.8c42.7-42.7,99.4-66.2,159.8-66.2c60.3,0,117.1,23.5,159.8,66.2
	c42.7,42.7,66.2,99.4,66.2,159.8S-1262,465.2-1304.6,507.9z"/>
<linearGradient id="SVGID_1_" gradientUnits="userSpaceOnUse" x1="750" y1="501" x2="750" y2="2.9436">
	<stop  offset="0" style="stop-color:#601E7E"/>
	<stop  offset="1" style="stop-color:#44185B"/>
</linearGradient>
<rect class="st1" width="1500" height="501"/>
<g>
	<path class="st2" d="M508.7,409.9c0-9.4-7.6-17.1-17.1-17.1c-9.4,0-17.1,7.6-17.1,17.1v17.3h34.1V409.9z"/>
	<path class="st2" d="M524.1,421.2c0-4.7-3.8-8.5-8.5-8.5s-8.5,3.8-8.5,8.5v8.7h17.1V421.2z"/>
	<polygon class="st3" points="529.8,427.2 469,427.2 469,441 475.4,441 478.8,481.8 520.1,481.8 523.5,441 529.8,441 	"/>
</g>
<g>
	<rect x="701.1" y="28.1" class="st4" width="98.1" height="146.2"/>
	<line class="st5" x1="713.5" y1="164" x2="786.8" y2="164"/>
	<rect x="713.5" y="27.1" width="85.7" height="6"/>
	<rect x="701.1" y="47.4" class="st2" width="82" height="23.1"/>
	<g>
		<path class="st4" d="M706.8,52.6h2.2v9.8c0,1,0.4,1.4,1.2,1.4c0.8,0,1.2-0.5,1.2-1.4v-9.8h2.2v9.7c0,2.2-1.3,3.5-3.4,3.5
			c-2.1,0-3.4-1.2-3.4-3.5V52.6z"/>
		<path class="st4" d="M715.8,65.6v-13h2.1l2.7,7.4h0v-7.4h2v13h-1.9l-2.8-8.1h0v8.1H715.8z"/>
		<path class="st4" d="M725.1,65.6v-13h2.2v13H725.1z"/>
		<path class="st4" d="M734.4,52.6h2.2l-2.7,13h-2.2l-2.7-13h2.2l1.6,9h0L734.4,52.6z"/>
		<path class="st4" d="M737.8,65.6v-13h6v1.9H740v3.3h2.9v1.9H740v3.8h4v1.9H737.8z"/>
		<path class="st4" d="M748,65.6h-2.2v-13h3.1c2.5,0,3.8,1.1,3.8,3.8c0,2.1-0.8,2.9-1.6,3.3l1.9,5.9h-2.3l-1.6-5.4
			c-0.3,0-0.8,0.1-1.2,0.1V65.6z M748,58.5h0.8c1.2,0,1.7-0.5,1.7-2c0-1.5-0.5-2-1.7-2H748V58.5z"/>
		<path class="st4" d="M758.9,55.8c-0.1-1.1-0.7-1.4-1.2-1.4c-0.7,0-1.1,0.5-1.1,1.3c0,2.2,4.5,3.3,4.5,6.8c0,2.1-1.4,3.3-3.5,3.3
			c-2.1,0-3.3-1.7-3.3-3.6l2.1-0.3c0.1,1.3,0.6,2,1.3,2c0.8,0,1.3-0.4,1.3-1.2c0-2.6-4.5-3.3-4.5-7c0-2.1,1.3-3.2,3.5-3.2
			c1.8,0,2.9,1.3,3.1,3.2L758.9,55.8z"/>
		<path class="st4" d="M764.1,65.6h-2.2l2.4-13h2.8l2.4,13h-2.2l-0.4-2.9h-2.4L764.1,65.6z M764.8,60.8h1.8l-0.9-5.6h0L764.8,60.8z"
			/>
		<path class="st4" d="M770.7,65.6v-13h2.2v11.1h3.5v1.9H770.7z"/>
	</g>
	<g>
		<rect x="711.6" y="75.2" class="st2" width="87.6" height="23.1"/>
		<g>
			<path class="st4" d="M717.8,91.7h0.5c0.9,0,1.2-0.4,1.2-1.1V80.4h2.2v10.4c0,1.7-0.7,2.8-3.1,2.8h-0.7V91.7z"/>
			<path class="st4" d="M725.1,93.4h-2.2l2.4-13h2.8l2.4,13h-2.2l-0.4-2.9h-2.4L725.1,93.4z M725.8,88.6h1.8l-0.9-5.6h0L725.8,88.6z
				"/>
			<path class="st4" d="M735.7,80.4h2.2l-2.7,13h-2.2l-2.7-13h2.2l1.6,9h0L735.7,80.4z"/>
			<path class="st4" d="M739.8,93.4h-2.2l2.4-13h2.8l2.4,13H743l-0.4-2.9h-2.4L739.8,93.4z M740.5,88.6h1.8l-0.9-5.6h0L740.5,88.6z"
				/>
			<path class="st4" d="M750.5,83.6c-0.1-1.1-0.7-1.4-1.2-1.4c-0.7,0-1.1,0.5-1.1,1.3c0,2.2,4.5,3.3,4.5,6.8c0,2.1-1.4,3.3-3.5,3.3
				c-2.1,0-3.3-1.7-3.3-3.6l2.1-0.3c0.1,1.3,0.6,2,1.3,2c0.8,0,1.3-0.4,1.3-1.2c0-2.6-4.5-3.3-4.5-7c0-2.1,1.3-3.2,3.5-3.2
				c1.8,0,2.9,1.3,3.1,3.2L750.5,83.6z"/>
			<path class="st4" d="M758.9,84.8v-1c0-1.1-0.5-1.6-1.1-1.6c-0.9,0-1.2,0.5-1.2,1.4v6.6c0,1,0.3,1.4,1.2,1.4
				c0.8,0,1.1-0.5,1.1-1.3v-1.6h2.2v1.5c0,1.8-1.1,3.3-3.3,3.3c-2.3,0-3.4-1.5-3.4-3.3v-6.7c0-1.8,1.1-3.3,3.4-3.3
				c2.2,0,3.3,1.6,3.3,3.6v1H758.9z"/>
			<path class="st4" d="M765.7,93.4h-2.2v-13h3.1c2.5,0,3.8,1.1,3.8,3.8c0,2.1-0.8,2.9-1.6,3.3l1.9,5.9h-2.3l-1.6-5.4
				c-0.3,0-0.8,0.1-1.2,0.1V93.4z M765.7,86.3h0.8c1.2,0,1.7-0.5,1.7-2c0-1.5-0.5-2-1.7-2h-0.8V86.3z"/>
			<path class="st4" d="M772.8,93.4v-13h2.2v13H772.8z"/>
			<path class="st4" d="M777.5,93.4v-13h3.2c2.8,0,4,1.1,4,3.8c0,2.8-1.3,3.8-4,3.8h-1v5.3H777.5z M779.7,86.3h0.9
				c1.5,0,1.9-0.5,1.9-2c0-1.5-0.5-2-1.9-2h-0.9V86.3z"/>
			<path class="st4" d="M787.7,82.4h-2.2v-1.9h6.6v1.9H790v11.1h-2.2V82.4z"/>
		</g>
	</g>
	<rect x="700.8" y="130.8" class="st2" width="98.4" height="23.1"/>
	<g>
		<path class="st4" d="M706.8,149.1v-13h6v1.9H709v3.3h2.9v1.9H709v3.8h4v1.9H706.8z"/>
		<path class="st4" d="M719.4,136.1h2.2l-2.7,13h-2.2l-2.7-13h2.2l1.6,9h0L719.4,136.1z"/>
		<path class="st4" d="M722.8,149.1v-13h6v1.9H725v3.3h2.9v1.9H725v3.8h4v1.9H722.8z"/>
		<path class="st4" d="M733,149.1h-2.2v-13h3.1c2.5,0,3.8,1.1,3.8,3.8c0,2.1-0.8,2.9-1.6,3.3l1.9,5.9h-2.3l-1.6-5.4
			c-0.3,0-0.8,0.1-1.2,0.1V149.1z M733,141.9h0.8c1.2,0,1.7-0.5,1.7-2c0-1.5-0.5-2-1.7-2H733V141.9z"/>
		<path class="st4" d="M743.5,149.1h-2.2v-5.4l-2.7-7.6h2.3l1.6,5h0l1.5-5h2.3l-2.7,7.6V149.1z"/>
		<path class="st4" d="M751.3,136.1h1.8l1.5,8.3h0l1.2-8.3h2.1l-2.3,13h-1.9l-1.6-8.6h0l-1.5,8.6h-1.9l-2.5-13h2.1l1.4,8.3h0
			L751.3,136.1z"/>
		<path class="st4" d="M759.5,149.1v-13h2.2v5.3h2.4v-5.3h2.2v13h-2.2v-5.8h-2.4v5.8H759.5z"/>
		<path class="st4" d="M768.5,149.1v-13h6v1.9h-3.7v3.3h2.9v1.9h-2.9v3.8h4v1.9H768.5z"/>
		<path class="st4" d="M778.7,149.1h-2.2v-13h3.1c2.5,0,3.8,1.1,3.8,3.8c0,2.1-0.8,2.9-1.6,3.3l1.9,5.9h-2.3l-1.6-5.4
			c-0.3,0-0.8,0.1-1.2,0.1V149.1z M778.7,141.9h0.8c1.2,0,1.7-0.5,1.7-2c0-1.5-0.5-2-1.7-2h-0.8V141.9z"/>
		<path class="st4" d="M785.4,149.1v-13h6v1.9h-3.7v3.3h2.9v1.9h-2.9v3.8h4v1.9H785.4z"/>
	</g>
	<rect x="701.1" y="103" class="st2" width="71.8" height="23.1"/>
	<g>
		<path class="st4" d="M715.8,108.3v13h-1.9v-10.2h0l-2,10.2h-1.1l-2-10.2h0v10.2h-1.9v-13h2.9l1.6,7.6h0l1.6-7.6H715.8z"/>
		<path class="st4" d="M717.8,111.4c0-1.8,1.1-3.3,3.4-3.3s3.4,1.5,3.4,3.3v6.7c0,1.8-1.1,3.3-3.4,3.3s-3.4-1.5-3.4-3.3V111.4z
			 M720,118c0,1,0.3,1.4,1.2,1.4s1.2-0.5,1.2-1.4v-6.6c0-1-0.3-1.4-1.2-1.4s-1.2,0.5-1.2,1.4V118z"/>
		<path class="st4" d="M726.8,108.3h3.3c2.3,0,3.5,1.3,3.5,3.9v5.1c0,2.7-1.2,3.9-3.5,3.9h-3.3V108.3z M729,119.4h0.8
			c1.2,0,1.6-0.5,1.6-1.8v-5.7c0-1.4-0.4-1.8-1.6-1.8H729V119.4z"/>
		<path class="st4" d="M735.8,108.3h2.2v9.8c0,1,0.4,1.4,1.2,1.4c0.8,0,1.2-0.5,1.2-1.4v-9.8h2.2v9.7c0,2.2-1.3,3.5-3.4,3.5
			c-2.1,0-3.4-1.2-3.4-3.5V108.3z"/>
		<path class="st4" d="M744.7,121.3v-13h2.2v11.1h3.5v1.9H744.7z"/>
		<path class="st4" d="M751.8,121.3v-13h6v1.9H754v3.3h2.9v1.9H754v3.8h4v1.9H751.8z"/>
		<path class="st4" d="M763.9,111.5c-0.1-1.1-0.7-1.4-1.2-1.4c-0.7,0-1.1,0.5-1.1,1.3c0,2.2,4.5,3.3,4.5,6.8c0,2.1-1.4,3.3-3.5,3.3
			c-2.1,0-3.3-1.7-3.3-3.6l2.1-0.3c0.1,1.3,0.6,2,1.3,2c0.8,0,1.3-0.4,1.3-1.2c0-2.6-4.5-3.3-4.5-7c0-2.1,1.3-3.2,3.5-3.2
			c1.8,0,2.9,1.3,3.1,3.2L763.9,111.5z"/>
	</g>
</g>
<g>
	<rect x="1055.1" y="157.4" class="st4" width="98.1" height="146.2"/>
	<line class="st5" x1="1067.6" y1="293.4" x2="1140.8" y2="293.4"/>
	<rect x="1067.6" y="156.4" width="85.7" height="6"/>
	<g>
		<g>
			<rect x="1055.1" y="176.7" class="st2" width="82" height="23.1"/>
			<g>
				<path class="st4" d="M1060.9,182h3.3c2.3,0,3.5,1.3,3.5,3.9v5.1c0,2.7-1.2,3.9-3.5,3.9h-3.3V182z M1063.1,193.2h0.8
					c1.2,0,1.6-0.5,1.6-1.8v-5.7c0-1.4-0.4-1.8-1.6-1.8h-0.8V193.2z"/>
				<path class="st4" d="M1069.9,195v-13h6v1.9h-3.7v3.3h2.9v1.9h-2.9v3.8h4v1.9H1069.9z"/>
				<path class="st4" d="M1077.9,195v-13h3.2c2.8,0,4,1.1,4,3.8c0,2.8-1.3,3.8-4,3.8h-1v5.3H1077.9z M1080.1,187.8h0.9
					c1.5,0,1.9-0.5,1.9-2c0-1.5-0.5-2-1.9-2h-0.9V187.8z"/>
				<path class="st4" d="M1086.8,195v-13h2.2v11.1h3.5v1.9H1086.8z"/>
				<path class="st4" d="M1093.9,185.2c0-1.8,1.1-3.3,3.4-3.3s3.4,1.5,3.4,3.3v6.7c0,1.8-1.1,3.3-3.4,3.3s-3.4-1.5-3.4-3.3V185.2z
					 M1096.1,191.8c0,1,0.3,1.4,1.2,1.4s1.2-0.5,1.2-1.4v-6.6c0-1-0.3-1.4-1.2-1.4s-1.2,0.5-1.2,1.4V191.8z"/>
				<path class="st4" d="M1106.9,195h-2.2v-5.4l-2.7-7.6h2.3l1.6,5h0l1.5-5h2.3l-2.7,7.6V195z"/>
				<path class="st4" d="M1111.2,195v-13h2.2v13H1111.2z"/>
				<path class="st4" d="M1115.9,195v-13h2.1l2.7,7.4h0V182h2v13h-1.9l-2.8-8.1h0v8.1H1115.9z"/>
				<path class="st4" d="M1127.9,188.4h3.7v6.6h-1.1l-0.4-1c-0.7,0.8-1.2,1.2-2.3,1.2c-1.8,0-3-1.3-3-3.3v-6.7
					c0-1.8,1.1-3.3,3.3-3.3c2.2,0,3.3,1.6,3.3,3.6v0.8h-2.1c0-1.9-0.4-2.4-1.3-2.4c-0.5,0-1,0.3-1,1.4v6.7c0,0.8,0.3,1.4,1,1.4
					c0.9,0,1.2-0.5,1.2-1.8v-1.3h-1.4V188.4z"/>
			</g>
		</g>
		<g>
			<rect x="1086.6" y="204.5" class="st2" width="66.6" height="23.1"/>
			<g>
				<path class="st4" d="M1102.8,209.8v13h-1.9v-10.2h0l-2,10.2h-1.1l-2-10.2h0v10.2h-1.9v-13h2.9l1.6,7.6h0l1.6-7.6H1102.8z"/>
				<path class="st4" d="M1104.9,213c0-1.8,1.1-3.3,3.4-3.3s3.4,1.5,3.4,3.3v6.7c0,1.8-1.1,3.3-3.4,3.3s-3.4-1.5-3.4-3.3V213z
					 M1107.1,219.6c0,1,0.3,1.4,1.2,1.4s1.2-0.5,1.2-1.4V213c0-1-0.3-1.4-1.2-1.4s-1.2,0.5-1.2,1.4V219.6z"/>
				<path class="st4" d="M1113.9,209.8h3.3c2.3,0,3.5,1.3,3.5,3.9v5.1c0,2.7-1.2,3.9-3.5,3.9h-3.3V209.8z M1116.1,221h0.8
					c1.2,0,1.6-0.5,1.6-1.8v-5.7c0-1.4-0.4-1.8-1.6-1.8h-0.8V221z"/>
				<path class="st4" d="M1122.9,222.8v-13h6v1.9h-3.7v3.3h2.9v1.9h-2.9v3.8h4v1.9H1122.9z"/>
				<path class="st4" d="M1133.1,222.8h-2.2v-13h3.1c2.5,0,3.8,1.1,3.8,3.8c0,2.1-0.8,2.9-1.6,3.3l1.9,5.9h-2.3l-1.6-5.4
					c-0.3,0-0.8,0.1-1.2,0.1V222.8z M1133.1,215.6h0.8c1.2,0,1.7-0.5,1.7-2c0-1.5-0.5-2-1.7-2h-0.8V215.6z"/>
				<path class="st4" d="M1139.9,222.8v-13h2.1l2.7,7.4h0v-7.4h2v13h-1.9l-2.8-8.1h0v8.1H1139.9z"/>
			</g>
		</g>
		<g>
			<rect x="1106.9" y="260.2" class="st2" width="46.4" height="23.1"/>
			<g>
				<path class="st4" d="M1116.2,278.4h-2.2l2.4-13h2.8l2.4,13h-2.2l-0.4-2.9h-2.4L1116.2,278.4z M1116.9,273.6h1.8l-0.9-5.6h0
					L1116.9,273.6z"/>
				<path class="st4" d="M1122.9,278.4v-13h3.2c2.8,0,4,1.1,4,3.8s-1.3,3.8-4,3.8h-1v5.3H1122.9z M1125.1,271.3h0.9
					c1.5,0,1.9-0.5,1.9-2s-0.5-2-1.9-2h-0.9V271.3z"/>
				<path class="st4" d="M1131.9,278.4v-13h3.2c2.8,0,4,1.1,4,3.8s-1.3,3.8-4,3.8h-1v5.3H1131.9z M1134.1,271.3h0.9
					c1.5,0,1.9-0.5,1.9-2s-0.5-2-1.9-2h-0.9V271.3z"/>
				<path class="st4" d="M1144.9,268.6c-0.1-1.1-0.7-1.4-1.2-1.4c-0.7,0-1.1,0.5-1.1,1.3c0,2.2,4.5,3.3,4.5,6.8
					c0,2.1-1.4,3.3-3.5,3.3c-2.1,0-3.3-1.7-3.3-3.6l2.1-0.3c0.1,1.3,0.6,2,1.3,2c0.8,0,1.3-0.4,1.3-1.2c0-2.6-4.5-3.3-4.5-7
					c0-2.1,1.3-3.2,3.5-3.2c1.8,0,2.9,1.3,3.1,3.2L1144.9,268.6z"/>
			</g>
		</g>
		<g>
			<rect x="1055.1" y="232.4" class="st2" width="85.7" height="23.1"/>
			<g>
				<path class="st4" d="M1059.8,248.9h0.5c0.9,0,1.2-0.4,1.2-1.1v-10.2h2.2V248c0,1.7-0.7,2.8-3.1,2.8h-0.7V248.9z"/>
				<path class="st4" d="M1067.2,250.6h-2.2l2.4-13h2.8l2.4,13h-2.2l-0.4-2.9h-2.4L1067.2,250.6z M1067.9,245.8h1.8l-0.9-5.6h0
					L1067.9,245.8z"/>
				<path class="st4" d="M1077.8,237.6h2.2l-2.7,13h-2.2l-2.7-13h2.2l1.6,9h0L1077.8,237.6z"/>
				<path class="st4" d="M1081.8,250.6h-2.2l2.4-13h2.8l2.4,13h-2.2l-0.4-2.9h-2.4L1081.8,250.6z M1082.5,245.8h1.8l-0.9-5.6h0
					L1082.5,245.8z"/>
				<path class="st4" d="M1092.6,240.8c-0.1-1.1-0.7-1.4-1.2-1.4c-0.7,0-1.1,0.5-1.1,1.3c0,2.2,4.5,3.3,4.5,6.8
					c0,2.1-1.4,3.3-3.5,3.3c-2.1,0-3.3-1.7-3.3-3.6l2.1-0.3c0.1,1.3,0.6,2,1.3,2c0.8,0,1.3-0.4,1.3-1.2c0-2.6-4.5-3.3-4.5-7
					c0-2.1,1.3-3.2,3.5-3.2c1.8,0,2.9,1.3,3.1,3.2L1092.6,240.8z"/>
				<path class="st4" d="M1101,242v-1c0-1.1-0.5-1.6-1.1-1.6c-0.9,0-1.2,0.5-1.2,1.4v6.6c0,1,0.3,1.4,1.2,1.4c0.8,0,1.1-0.5,1.1-1.3
					V246h2.2v1.5c0,1.8-1.1,3.3-3.3,3.3c-2.3,0-3.4-1.5-3.4-3.3v-6.7c0-1.8,1.1-3.3,3.4-3.3c2.2,0,3.3,1.6,3.3,3.6v1H1101z"/>
				<path class="st4" d="M1107.7,250.6h-2.2v-13h3.1c2.5,0,3.8,1.1,3.8,3.8c0,2.1-0.8,2.9-1.6,3.3l1.9,5.9h-2.3l-1.6-5.4
					c-0.3,0-0.8,0.1-1.2,0.1V250.6z M1107.7,243.5h0.8c1.2,0,1.7-0.5,1.7-2c0-1.5-0.5-2-1.7-2h-0.8V243.5z"/>
				<path class="st4" d="M1114.8,250.6v-13h2.2v13H1114.8z"/>
				<path class="st4" d="M1119.5,250.6v-13h3.2c2.8,0,4,1.1,4,3.8c0,2.8-1.3,3.8-4,3.8h-1v5.3H1119.5z M1121.7,243.5h0.9
					c1.5,0,1.9-0.5,1.9-2c0-1.5-0.5-2-1.9-2h-0.9V243.5z"/>
				<path class="st4" d="M1129.8,239.6h-2.2v-1.9h6.6v1.9h-2.2v11.1h-2.2V239.6z"/>
			</g>
		</g>
	</g>
</g>
<g>
	<rect x="346.7" y="157.4" class="st4" width="98.1" height="146.2"/>
	<line class="st5" x1="359.2" y1="293.4" x2="432.4" y2="293.4"/>
	<rect x="359.2" y="156.4" width="85.7" height="6"/>
	<g>
		<rect x="346.7" y="191.6" class="st2" width="82" height="23.1"/>
		<rect x="382.4" y="226.3" class="st2" width="62.5" height="42"/>
		<g>
			<path class="st4" d="M352.5,209.8v-13h3.2c2.8,0,4,1.1,4,3.8c0,2.8-1.3,3.8-4,3.8h-1v5.3H352.5z M354.7,202.7h0.9
				c1.5,0,1.9-0.5,1.9-2c0-1.5-0.5-2-1.9-2h-0.9V202.7z"/>
			<path class="st4" d="M363.7,209.8h-2.2v-13h3.1c2.5,0,3.8,1.1,3.8,3.8c0,2.1-0.8,2.9-1.6,3.3l1.9,5.9h-2.3l-1.6-5.4
				c-0.3,0-0.8,0.1-1.2,0.1V209.8z M363.7,202.7h0.8c1.2,0,1.7-0.5,1.7-2c0-1.5-0.5-2-1.7-2h-0.8V202.7z"/>
			<path class="st4" d="M371.8,209.8h-2.2l2.4-13h2.8l2.4,13H375l-0.4-2.9h-2.4L371.8,209.8z M372.5,205h1.8l-0.9-5.6h0L372.5,205z"
				/>
			<path class="st4" d="M383,201.2v-1c0-1.1-0.5-1.6-1.1-1.6c-0.9,0-1.2,0.5-1.2,1.4v6.6c0,1,0.3,1.4,1.2,1.4c0.8,0,1.1-0.5,1.1-1.3
				v-1.6h2.2v1.5c0,1.8-1.1,3.3-3.3,3.3c-2.3,0-3.4-1.5-3.4-3.3V200c0-1.8,1.1-3.3,3.4-3.3c2.2,0,3.3,1.6,3.3,3.6v1H383z"/>
			<path class="st4" d="M388.8,198.8h-2.2v-1.9h6.6v1.9H391v11.1h-2.2V198.8z"/>
			<path class="st4" d="M394.8,209.8v-13h2.2v13H394.8z"/>
			<path class="st4" d="M404,201.2v-1c0-1.1-0.5-1.6-1.1-1.6c-0.9,0-1.2,0.5-1.2,1.4v6.6c0,1,0.3,1.4,1.2,1.4c0.8,0,1.1-0.5,1.1-1.3
				v-1.6h2.2v1.5c0,1.8-1.1,3.3-3.3,3.3c-2.3,0-3.4-1.5-3.4-3.3V200c0-1.8,1.1-3.3,3.4-3.3c2.2,0,3.3,1.6,3.3,3.6v1H404z"/>
			<path class="st4" d="M409.8,209.8h-2.2l2.4-13h2.8l2.4,13H413l-0.4-2.9h-2.4L409.8,209.8z M410.5,205h1.8l-0.9-5.6h0L410.5,205z"
				/>
			<path class="st4" d="M416.3,209.8v-13h2.2v11.1h3.5v1.9H416.3z"/>
		</g>
		<g>
			<path class="st4" d="M394.5,259.4v-23.8h11v3.6h-6.9v6.1h5.3v3.6h-5.3v7h7.3v3.6H394.5z"/>
			<path class="st4" d="M416.7,241.4c-0.2-2-1.3-2.6-2.2-2.6c-1.3,0-2,0.9-2,2.3c0,4.1,8.3,6,8.3,12.5c0,3.9-2.6,6.1-6.5,6.1
				c-3.8,0-6-3-6.1-6.6l3.9-0.6c0.2,2.4,1.1,3.6,2.4,3.6c1.4,0,2.4-0.8,2.4-2.2c0-4.7-8.3-6-8.3-12.8c0-3.8,2.3-5.9,6.3-5.9
				c3.3,0,5.3,2.4,5.7,5.8L416.7,241.4z"/>
			<path class="st4" d="M430.9,241.9v-1.2c0-1.6-0.5-2.3-1.7-2.3s-1.9,0.7-1.9,2.3v5.6c1.1-1.1,1.7-1.6,3.4-1.6
				c2.4,0,4.4,1.4,4.4,4.9v2.8c0,5-1.7,7.3-5.8,7.3c-4.1,0-5.8-2-5.8-6.5v-11.4c0-4.5,1.7-6.5,5.8-6.5c3.2-0.1,5.3,2.2,5.3,5.3v1.5
				H430.9z M427.3,254.2c0,1.6,0.7,2.3,1.9,2.3s1.9-0.7,1.9-2.3v-4c0-1.6-0.7-2.3-1.7-2.3c-0.7,0-1.6,0.7-2.1,1.1V254.2z"/>
		</g>
	</g>
</g>
<g>
	<rect x="892.5" y="49.9" class="st4" width="98.1" height="146.2"/>
	<line class="st5" x1="906.6" y1="185.4" x2="979.9" y2="185.4"/>
	<rect x="905" y="48.9" width="85.7" height="6"/>
	<g>
		<g>
			<rect x="892.5" y="77.1" class="st2" width="64.3" height="23.1"/>
			<g>
				<path class="st4" d="M899.5,84.2h-2.2v-1.9h6.6v1.9h-2.2v11.1h-2.2V84.2z"/>
				<path class="st4" d="M905.2,95.2v-13h6v1.9h-3.7v3.3h2.9v1.9h-2.9v3.8h4v1.9H905.2z"/>
				<path class="st4" d="M917.3,85.4c-0.1-1.1-0.7-1.4-1.2-1.4c-0.7,0-1.1,0.5-1.1,1.3c0,2.2,4.5,3.3,4.5,6.8c0,2.1-1.4,3.3-3.5,3.3
					c-2.1,0-3.3-1.7-3.3-3.6l2.1-0.3c0.1,1.3,0.6,2,1.3,2c0.8,0,1.3-0.4,1.3-1.2c0-2.6-4.5-3.3-4.5-7c0-2.1,1.3-3.2,3.5-3.2
					c1.8,0,2.9,1.3,3.1,3.2L917.3,85.4z"/>
				<path class="st4" d="M922.5,84.2h-2.2v-1.9h6.6v1.9h-2.2v11.1h-2.2V84.2z"/>
				<path class="st4" d="M928.5,95.2v-13h2.2v13H928.5z"/>
				<path class="st4" d="M933.2,95.2v-13h2.1l2.7,7.4h0v-7.4h2v13h-1.9l-2.8-8.1h0v8.1H933.2z"/>
				<path class="st4" d="M945.3,88.6h3.7v6.6h-1.1l-0.4-1c-0.7,0.8-1.2,1.2-2.3,1.2c-1.8,0-3-1.3-3-3.3v-6.7c0-1.8,1.1-3.3,3.3-3.3
					c2.2,0,3.3,1.6,3.3,3.6v0.8h-2.1c0-1.9-0.4-2.4-1.3-2.4c-0.5,0-1,0.3-1,1.4v6.7c0,0.8,0.3,1.4,1,1.4c0.9,0,1.2-0.5,1.2-1.8v-1.3
					h-1.4V88.6z"/>
			</g>
		</g>
		<g>
			<rect x="902.2" y="110.7" class="st2" width="88.5" height="23.1"/>
			<g>
				<path class="st4" d="M910.2,128.2h0.5c0.9,0,1.2-0.4,1.2-1.1V117h2.2v10.4c0,1.7-0.7,2.8-3.1,2.8h-0.7V128.2z"/>
				<path class="st4" d="M917.5,130h-2.2l2.4-13h2.8l2.4,13h-2.2l-0.4-2.9h-2.4L917.5,130z M918.3,125.1h1.8l-0.9-5.6h0L918.3,125.1
					z"/>
				<path class="st4" d="M928.1,117h2.2l-2.7,13h-2.2l-2.7-13h2.2l1.6,9h0L928.1,117z"/>
				<path class="st4" d="M932.2,130H930l2.4-13h2.8l2.4,13h-2.2l-0.4-2.9h-2.4L932.2,130z M932.9,125.1h1.8l-0.9-5.6h0L932.9,125.1z
					"/>
				<path class="st4" d="M943,120.2c-0.1-1.1-0.7-1.4-1.2-1.4c-0.7,0-1.1,0.5-1.1,1.3c0,2.2,4.5,3.3,4.5,6.8c0,2.1-1.4,3.3-3.5,3.3
					c-2.1,0-3.3-1.7-3.3-3.6l2.1-0.3c0.1,1.3,0.6,2,1.3,2c0.8,0,1.3-0.4,1.3-1.2c0-2.6-4.5-3.3-4.5-7c0-2.1,1.3-3.2,3.5-3.2
					c1.8,0,2.9,1.3,3.1,3.2L943,120.2z"/>
				<path class="st4" d="M951.4,121.3v-1c0-1.1-0.5-1.6-1.1-1.6c-0.9,0-1.2,0.5-1.2,1.4v6.6c0,1,0.3,1.4,1.2,1.4
					c0.8,0,1.1-0.5,1.1-1.3v-1.6h2.2v1.5c0,1.8-1.1,3.3-3.3,3.3c-2.3,0-3.4-1.5-3.4-3.3v-6.7c0-1.8,1.1-3.3,3.4-3.3
					c2.2,0,3.3,1.6,3.3,3.6v1H951.4z"/>
				<path class="st4" d="M958.1,130h-2.2v-13h3.1c2.5,0,3.8,1.1,3.8,3.8c0,2.1-0.8,2.9-1.6,3.3l1.9,5.9h-2.3l-1.6-5.4
					c-0.3,0-0.8,0.1-1.2,0.1V130z M958.1,122.8h0.8c1.2,0,1.7-0.5,1.7-2c0-1.5-0.5-2-1.7-2h-0.8V122.8z"/>
				<path class="st4" d="M965.2,130v-13h2.2v13H965.2z"/>
				<path class="st4" d="M969.9,130v-13h3.2c2.8,0,4,1.1,4,3.8c0,2.8-1.3,3.8-4,3.8h-1v5.3H969.9z M972.1,122.8h0.9
					c1.5,0,1.9-0.5,1.9-2c0-1.5-0.5-2-1.9-2h-0.9V122.8z"/>
				<path class="st4" d="M980.2,118.9H978V117h6.6v1.9h-2.2V130h-2.2V118.9z"/>
			</g>
		</g>
		<g>
			<rect x="892.5" y="144.7" class="st2" width="72.3" height="23.1"/>
			<g>
				<path class="st4" d="M907.2,150v13h-1.9v-10.2h0l-2,10.2h-1.1l-2-10.2h0V163h-1.9v-13h2.9l1.6,7.6h0l1.6-7.6H907.2z"/>
				<path class="st4" d="M909.2,153.1c0-1.8,1.1-3.3,3.4-3.3s3.4,1.5,3.4,3.3v6.7c0,1.8-1.1,3.3-3.4,3.3s-3.4-1.5-3.4-3.3V153.1z
					 M911.5,159.8c0,1,0.3,1.4,1.2,1.4s1.2-0.5,1.2-1.4v-6.6c0-1-0.3-1.4-1.2-1.4s-1.2,0.5-1.2,1.4V159.8z"/>
				<path class="st4" d="M918.2,150h3.3c2.3,0,3.5,1.3,3.5,3.9v5.1c0,2.7-1.2,3.9-3.5,3.9h-3.3V150z M920.5,161.2h0.8
					c1.2,0,1.6-0.5,1.6-1.8v-5.7c0-1.4-0.4-1.8-1.6-1.8h-0.8V161.2z"/>
				<path class="st4" d="M927.2,150h2.2v9.8c0,1,0.4,1.4,1.2,1.4c0.8,0,1.2-0.5,1.2-1.4V150h2.2v9.7c0,2.2-1.3,3.5-3.4,3.5
					c-2.1,0-3.4-1.2-3.4-3.5V150z"/>
				<path class="st4" d="M936.1,163v-13h2.2V161h3.5v1.9H936.1z"/>
				<path class="st4" d="M943.2,163v-13h6v1.9h-3.7v3.3h2.9v1.9h-2.9v3.8h4v1.9H943.2z"/>
				<path class="st4" d="M955.3,153.2c-0.1-1.1-0.7-1.4-1.2-1.4c-0.7,0-1.1,0.5-1.1,1.3c0,2.2,4.5,3.3,4.5,6.8
					c0,2.1-1.4,3.3-3.5,3.3c-2.1,0-3.3-1.7-3.3-3.6l2.1-0.3c0.1,1.3,0.6,2,1.3,2c0.8,0,1.3-0.4,1.3-1.2c0-2.6-4.5-3.3-4.5-7
					c0-2.1,1.3-3.2,3.5-3.2c1.8,0,2.9,1.3,3.1,3.2L955.3,153.2z"/>
			</g>
		</g>
	</g>
</g>
<g>
	<rect x="509.4" y="53.6" class="st4" width="98.1" height="146.2"/>
	<line class="st5" x1="523.5" y1="189.1" x2="596.7" y2="189.1"/>
	<rect x="521.8" y="52.6" width="85.7" height="6"/>
	<g>
		<rect x="509.4" y="80.8" class="st2" width="84.3" height="23.1"/>
		<g>
			<path class="st4" d="M524,86v13h-1.9V88.8h0L520,99H519l-2-10.2h0V99H515V86h2.9l1.6,7.6h0l1.6-7.6H524z"/>
			<path class="st4" d="M527.4,99h-2.2l2.4-13h2.8l2.4,13h-2.2l-0.4-2.9h-2.4L527.4,99z M528.1,94.2h1.8l-0.9-5.6h0L528.1,94.2z"/>
			<path class="st4" d="M538.1,89.2c-0.1-1.1-0.7-1.4-1.2-1.4c-0.7,0-1.1,0.5-1.1,1.3c0,2.2,4.5,3.3,4.5,6.8c0,2.1-1.4,3.3-3.5,3.3
				c-2.1,0-3.3-1.7-3.3-3.6l2.1-0.3c0.1,1.3,0.6,2,1.3,2c0.8,0,1.3-0.4,1.3-1.2c0-2.6-4.5-3.3-4.5-7c0-2.1,1.3-3.2,3.5-3.2
				c1.8,0,2.9,1.3,3.1,3.2L538.1,89.2z"/>
			<path class="st4" d="M543.4,87.9h-2.2V86h6.6v1.9h-2.2V99h-2.2V87.9z"/>
			<path class="st4" d="M549.1,99V86h6v1.9h-3.7v3.3h2.9v1.9h-2.9V97h4V99H549.1z"/>
			<path class="st4" d="M559.3,99h-2.2V86h3.1c2.5,0,3.8,1.1,3.8,3.8c0,2.1-0.8,2.9-1.6,3.3l1.9,5.9H562l-1.6-5.4
				c-0.3,0-0.8,0.1-1.2,0.1V99z M559.3,91.8h0.8c1.2,0,1.7-0.5,1.7-2c0-1.5-0.5-2-1.7-2h-0.8V91.8z"/>
			<path class="st4" d="M566.4,99V86h2.2v13H566.4z"/>
			<path class="st4" d="M571.1,99V86h2.1l2.7,7.4h0V86h2v13H576l-2.8-8.1h0V99H571.1z"/>
			<path class="st4" d="M583.1,92.4h3.7V99h-1.1l-0.4-1c-0.7,0.8-1.2,1.2-2.3,1.2c-1.8,0-3-1.3-3-3.3v-6.7c0-1.8,1.1-3.3,3.3-3.3
				c2.2,0,3.3,1.6,3.3,3.6v0.8h-2.1c0-1.9-0.4-2.4-1.3-2.4c-0.5,0-1,0.3-1,1.4v6.7c0,0.8,0.3,1.4,1,1.4c0.9,0,1.2-0.5,1.2-1.8v-1.3
				h-1.4V92.4z"/>
		</g>
	</g>
	<rect x="531" y="114.4" class="st2" width="76.5" height="23.1"/>
	<g>
		<path class="st4" d="M549,120.7v13h-1.9v-10.2h0l-2,10.2H544l-2-10.2h0v10.2H540v-13h2.9l1.6,7.6h0l1.6-7.6H549z"/>
		<path class="st4" d="M551.1,123.9c0-1.8,1.1-3.3,3.4-3.3s3.4,1.5,3.4,3.3v6.7c0,1.8-1.1,3.3-3.4,3.3s-3.4-1.5-3.4-3.3V123.9z
			 M553.3,130.5c0,1,0.3,1.4,1.2,1.4s1.2-0.5,1.2-1.4v-6.6c0-1-0.3-1.4-1.2-1.4s-1.2,0.5-1.2,1.4V130.5z"/>
		<path class="st4" d="M560.1,120.7h3.3c2.3,0,3.5,1.3,3.5,3.9v5.1c0,2.7-1.2,3.9-3.5,3.9h-3.3V120.7z M562.3,131.9h0.8
			c1.2,0,1.6-0.5,1.6-1.8v-5.7c0-1.4-0.4-1.8-1.6-1.8h-0.8V131.9z"/>
		<path class="st4" d="M569.1,120.7h2.2v9.8c0,1,0.4,1.4,1.2,1.4c0.8,0,1.2-0.5,1.2-1.4v-9.8h2.2v9.7c0,2.2-1.3,3.5-3.4,3.5
			c-2.1,0-3.4-1.2-3.4-3.5V120.7z"/>
		<path class="st4" d="M578,133.7v-13h2.2v11.1h3.5v1.9H578z"/>
		<path class="st4" d="M586.4,133.7h-2.2l2.4-13h2.8l2.4,13h-2.2l-0.4-2.9h-2.4L586.4,133.7z M587.1,128.9h1.8l-0.9-5.6h0
			L587.1,128.9z"/>
		<path class="st4" d="M595.3,133.7h-2.2v-13h3.1c2.5,0,3.8,1.1,3.8,3.8c0,2.1-0.8,2.9-1.6,3.3l1.9,5.9h-2.3l-1.6-5.4
			c-0.3,0-0.8,0.1-1.2,0.1V133.7z M595.3,126.5h0.8c1.2,0,1.7-0.5,1.7-2c0-1.5-0.5-2-1.7-2h-0.8V126.5z"/>
	</g>
	<g>
		<rect x="509.4" y="148.5" class="st2" width="86.3" height="23.1"/>
		<g>
			<path class="st4" d="M514.1,165h0.5c0.9,0,1.2-0.4,1.2-1.1v-10.2h2.2v10.4c0,1.7-0.7,2.8-3.1,2.8h-0.7V165z"/>
			<path class="st4" d="M521.4,166.7h-2.2l2.4-13h2.8l2.4,13h-2.2l-0.4-2.9h-2.4L521.4,166.7z M522.1,161.9h1.8l-0.9-5.6h0
				L522.1,161.9z"/>
			<path class="st4" d="M532,153.7h2.2l-2.7,13h-2.2l-2.7-13h2.2l1.6,9h0L532,153.7z"/>
			<path class="st4" d="M536,166.7h-2.2l2.4-13h2.8l2.4,13h-2.2l-0.4-2.9h-2.4L536,166.7z M536.8,161.9h1.8l-0.9-5.6h0L536.8,161.9z
				"/>
			<path class="st4" d="M546.8,156.9c-0.1-1.1-0.7-1.4-1.2-1.4c-0.7,0-1.1,0.5-1.1,1.3c0,2.2,4.5,3.3,4.5,6.8c0,2.1-1.4,3.3-3.5,3.3
				c-2.1,0-3.3-1.7-3.3-3.6l2.1-0.3c0.1,1.3,0.6,2,1.3,2c0.8,0,1.3-0.4,1.3-1.2c0-2.6-4.5-3.3-4.5-7c0-2.1,1.3-3.2,3.5-3.2
				c1.8,0,2.9,1.3,3.1,3.2L546.8,156.9z"/>
			<path class="st4" d="M555.2,158.1v-1c0-1.1-0.5-1.6-1.1-1.6c-0.9,0-1.2,0.5-1.2,1.4v6.6c0,1,0.3,1.4,1.2,1.4
				c0.8,0,1.1-0.5,1.1-1.3v-1.6h2.2v1.5c0,1.8-1.1,3.3-3.3,3.3c-2.3,0-3.4-1.5-3.4-3.3v-6.7c0-1.8,1.1-3.3,3.4-3.3
				c2.2,0,3.3,1.6,3.3,3.6v1H555.2z"/>
			<path class="st4" d="M562,166.7h-2.2v-13h3.1c2.5,0,3.8,1.1,3.8,3.8c0,2.1-0.8,2.9-1.6,3.3l1.9,5.9h-2.3l-1.6-5.4
				c-0.3,0-0.8,0.1-1.2,0.1V166.7z M562,159.6h0.8c1.2,0,1.7-0.5,1.7-2c0-1.5-0.5-2-1.7-2H562V159.6z"/>
			<path class="st4" d="M569,166.7v-13h2.2v13H569z"/>
			<path class="st4" d="M573.7,166.7v-13h3.2c2.8,0,4,1.1,4,3.8c0,2.8-1.3,3.8-4,3.8h-1v5.3H573.7z M576,159.6h0.9
				c1.5,0,1.9-0.5,1.9-2c0-1.5-0.5-2-1.9-2H576V159.6z"/>
			<path class="st4" d="M584,155.7h-2.2v-1.9h6.6v1.9h-2.2v11.1H584V155.7z"/>
		</g>
	</g>
</g>
<circle class="st6" cx="928.5" cy="396.4" r="15.1"/>
<g>
	<g>
		<path class="st3" d="M560.6,453.1c0-0.1,0-0.2,0-0.2l-3.1-19c0-0.2-0.3-0.4-0.5-0.4l-0.5,0.1l-0.5-2.8c0-0.2-0.2-0.3-0.3-0.2
			l-3.2,0.5c-0.2,0-0.3,0.2-0.2,0.3l0.5,2.8l-0.5,0.1c-0.1,0-0.2,0.1-0.3,0.2s-0.1,0.2-0.1,0.3l0.3,1.8l-1.5,0.2
			c-0.1,0-0.2,0.1-0.3,0.2s-0.1,0.2-0.1,0.3l1.1,6.5c0,0.1,0.1,0.2,0.2,0.3c0.1,0.1,0.2,0.1,0.3,0.1c0.2,0,0.4-0.3,0.4-0.5l-1-6.1
			l1.1-0.2l2.7,16.5c0,0,0,0,0,0c0,0,0,0.1,0,0.1 M552.8,435l3.9-0.6l3,18.3l-3.9,0.6L552.8,435z"/>
	</g>
	<g>
		<path class="st3" d="M574.2,456c0,0,0.1-0.1,0.1-0.1c0,0,0,0,0,0l7.1-15.1l1,0.5l-2.6,5.6c-0.1,0.2,0,0.5,0.2,0.6
			c0.1,0.1,0.2,0,0.3,0c0.1,0,0.2-0.1,0.3-0.2l2.8-6c0-0.1,0-0.2,0-0.3c0-0.1-0.1-0.2-0.2-0.3l-1.4-0.6l0.8-1.6c0-0.1,0-0.2,0-0.3
			c0-0.1-0.1-0.2-0.2-0.3l-0.5-0.2l1.2-2.6c0.1-0.1,0-0.3-0.1-0.4l-2.9-1.4c-0.1-0.1-0.3,0-0.4,0.1l-1.2,2.6l-0.5-0.2
			c-0.2-0.1-0.5,0-0.6,0.2l-8.2,17.4c-0.1,0.1-0.1,0.1-0.1,0.2 M573.7,455.1l-3.6-1.7l7.9-16.7l3.6,1.7L573.7,455.1z"/>
	</g>
	<g>
		<g>
			<rect x="559.2" y="430.5" class="st6" width="9.8" height="24.2"/>
			<line class="st7" x1="564.1" y1="436.3" x2="569" y2="436.3"/>
			<line class="st7" x1="564.1" y1="441.6" x2="569" y2="441.6"/>
			<line class="st7" x1="564.1" y1="446.9" x2="569" y2="446.9"/>
			<line class="st7" x1="564.1" y1="452.2" x2="569" y2="452.2"/>
		</g>
		<path class="st8" d="M548.6,457.5V456h31.1v-5.5h-31.1v23.6c0,2,1.5,3.7,3.4,4v0.1h24.2v-0.1c1.9-0.3,3.4-2,3.4-4v-16.7H548.6z"/>
		<path class="st8" d="M552.2,479.7c0.4,1.1,1.5,1.9,2.8,1.9h18.2c1.3,0,2.4-0.8,2.8-1.9H552.2z"/>
	</g>
</g>
<g>
	<path class="st3" d="M928.5,353c4.8,0,9.3,0.7,13.7,2v-22.6c0-3.8-3.1-6.8-6.8-6.8h-13.7c-3.8,0-6.8,3.1-6.8,6.8V355
		C919.1,353.7,923.7,353,928.5,353z"/>
	<path class="st3" d="M887.4,400.9h82.2c0-17.9-11.5-33-27.4-38.7c-4.3-1.5-8.9-2.4-13.7-2.4s-9.4,0.9-13.7,2.4
		C898.8,367.9,887.4,383.1,887.4,400.9z"/>
	<path class="st3" d="M1024.3,483.1v-6.8h-11.6l29.1-58.2l-32.5-65.1h11.7v-6.8h-51.5c0,0,0-13.7-13.7-13.7H949V353h32.1l32.5,65.1
		l-29.1,58.2h-8.2v6.8H1024.3z M1027.2,404.1l-9.2,7.4L988.8,353h12.9L1027.2,404.1z M992.2,476.3l25.8-51.6l9.2,7.4l-22.1,44.3
		H992.2z"/>
</g>
<g>
	<path class="st8" d="M965,441v36.8c0,2.3,1.9,4.2,4.2,4.2h27.2c2.3,0,4.2-1.9,4.2-4.2V441H965z"/>
	<circle class="st9" cx="964" cy="461.6" r="12.1"/>
	<g class="st10">
		<defs>
			<path id="SVGID_2_" class="st10" d="M965,441v36.8c0,2.3,1.9,4.2,4.2,4.2h27.2c2.3,0,4.2-1.9,4.2-4.2V441H965z"/>
		</defs>
		<clipPath id="SVGID_3_">
			<use xlink:href="#SVGID_2_"  style="overflow:visible;"/>
		</clipPath>
		<g transform="matrix(1 0 0 1 0 0)" style="opacity:0.7;clip-path:url(#SVGID_3_);">
			
				<image style="overflow:visible;" width="156" height="156" xlink:href="../../../Desktop/ponyfoo-logo.png"  transform="matrix(0.1627 0 0 0.1627 981.2736 448.1741)">
			</image>
		</g>
	</g>
</g>
<path class="st11" d="M886.5,450.1h-273c-3.3,0-6-2.7-6-6V270.6c0-3.3,2.7-6,6-6h273c3.3,0,6,2.7,6,6v173.5
	C892.5,447.4,889.8,450.1,886.5,450.1z"/>
<rect x="619.5" y="275.1" class="st4" width="261" height="144.5"/>
<g>
	<line class="st12" x1="638.7" y1="297.2" x2="861.3" y2="297.2"/>
	<line class="st12" x1="638.7" y1="335.2" x2="861.3" y2="335.2"/>
	<line class="st12" x1="638.7" y1="347.9" x2="861.3" y2="347.9"/>
	<line class="st12" x1="638.7" y1="360.5" x2="861.3" y2="360.5"/>
	<line class="st12" x1="638.7" y1="322.5" x2="683.5" y2="322.5"/>
	<line class="st12" x1="638.7" y1="309.9" x2="666.8" y2="309.9"/>
	<line class="st12" x1="638.7" y1="398.6" x2="861.3" y2="398.6"/>
	<line class="st12" x1="638.7" y1="385.9" x2="683.5" y2="385.9"/>
	<line class="st12" x1="638.7" y1="373.2" x2="666.8" y2="373.2"/>
</g>
<rect x="442.5" y="482" class="st3" width="615" height="18"/>
<circle class="st13" cx="704" cy="309" r="13.4"/>
<circle class="st13" cx="800.7" cy="309" r="13.4"/>
<path class="st13" d="M768.3,390.5c0,8.8-7.2,16-16,16c-8.8,0-16-7.2-16-16v-53.7h32V390.5z"/>
<path class="st6" d="M815,270.6c0-13.9-9.6-25.6-22.6-28.8c5.7-5.1,9.3-12.6,9.3-20.8h-71.9c-12.8,0-23.2,10.2-23.5,23
	c-9.9,4.8-16.7,14.9-16.7,26.7c0,10.3,5.2,19.4,13.2,24.7V322c0,14.4,11.8,26.1,26.1,26.1h46.7c14.4,0,26.1-11.8,26.1-26.1v-26.8
	C809.8,289.9,815,280.8,815,270.6z"/>
<path class="st14" d="M620.7,449.8c-8.8,0-15.9,7.1-15.9,15.9c0,8.8,7.1,15.9,15.9,15.9h97.6c8.8,0,15.9-7.1,15.9-15.9
	c0-8.8-7.1-15.9-15.9-15.9H620.7z"/>
<path class="st15" d="M877.7,480.2c0-15.6,12.7-28.3,28.3-28.3c15.6,0,28.3,12.7,28.3,28.3"/>
<path class="st14" d="M865.4,466.8c-8.7,1.6-14.4,9.9-12.8,18.6s9.9,14.4,18.6,12.8l26.4-12.4c8.7-1.6,14.4-9.9,12.8-18.6
	s-9.9-14.4-18.6-12.8L865.4,466.8z"/>
<path class="st14" d="M787.2,375.4c0-11-8.9-19.9-19.9-19.9h-31.4c-11,0-19.9,8.9-19.9,19.9H787.2z"/>
<path class="st16" d="M880.6,468l-73.7-93.7c-2.5-2.5-5.5-4.1-8.7-4.8l-0.1-0.4H696.3l0,0.2c-3.8,0.5-7.5,2.1-10.4,5.1l-77,77
	c-6.9,6.9-6.9,18.2,0,25.1c6.9,6.9,18.2,6.9,25.1,0l59.6-59.6l-4.7,84h125l-8.6-71.4l50,63.6c6.9,6.9,18.2,6.9,25.1,0
	C887.5,486.3,887.5,475,880.6,468z"/>
<path class="st17" d="M707.7,501c7.1-58.2,46.5-106.3,99.6-126.1l-0.4-0.6c-2.5-2.5-5.5-4.1-8.7-4.8l-0.1-0.4H696.3l0,0.2
	c-3.8,0.5-7.5,2.1-10.4,5.1l-77,77c-6.9,6.9-6.9,18.2,0,25.1c6.9,6.9,18.2,6.9,25.1,0l59.6-59.6l-4.7,84H707.7z"/>
<path class="st11" d="M826.3,467.7c0,11-9,20-20,20H693.7c-11,0-20-9-20-20V423c0-11,9-20,20-20h112.7c11,0,20,9,20,20V467.7z"/>
<path class="st18" d="M814,470.9c0,9.2-7.6,16.8-16.8,16.8h-94.5c-9.2,0-16.8-7.6-16.8-16.8v-37.5c0-9.2,7.6-16.8,16.8-16.8h94.5
	c9.2,0,16.8,7.6,16.8,16.8V470.9z"/>
<path class="st19" d="M734,447.3c0-8.8,7.2-16,16-16s16,7.2,16,16V501h-32V447.3z"/>
<rect x="1222.1" y="80.5" class="st20" width="243.4" height="339.1"/>
<path class="st21" d="M1340.2,135.2c5.6,5,9.2,12.2,9.2,20.3c0,14.9-12.1,27-27,27c-2.3,0-4.6-0.3-6.8-0.9c4.8,4.2,11,6.7,17.8,6.7
	c14.9,0,27-12.1,27-27C1360.4,148.8,1351.8,138.2,1340.2,135.2z"/>
<rect x="1222.1" y="296.9" transform="matrix(-1 -4.480961e-11 4.480961e-11 -1 2468.8962 716.4062)" class="st20" width="24.8" height="122.6"/>
<polygon class="st20" points="1379.6,356.8 1379.6,231.7 1429.1,231.7 1429.1,419.5 1379.6,419.5 1316.9,419.5 1316.9,356.8 "/>
<rect x="1427.6" y="80.5" transform="matrix(-1 -1.224647e-16 1.224647e-16 -1 2893.1062 500)" class="st21" width="37.9" height="339.1"/>
<g>
	<g>
		<line class="st22" x1="1439.5" y1="80.5" x2="1439.5" y2="259.4"/>
		<g>
			<polygon class="st23" points="1434.5,266.8 1439.5,258.5 1444.5,266.8 			"/>
		</g>
	</g>
</g>
<g>
	<line class="st24" x1="1446.6" y1="91.1" x2="1222.1" y2="91.1"/>
	<line class="st24" x1="1446.6" y1="109.8" x2="1222.1" y2="109.8"/>
	<line class="st24" x1="1446.6" y1="128.4" x2="1222.1" y2="128.4"/>
	<line class="st24" x1="1446.6" y1="147.1" x2="1222.1" y2="147.1"/>
</g>
<path class="st25" d="M860.1,128.3h-7v-7c0-0.4-0.3-0.8-0.8-0.8s-0.8,0.3-0.8,0.8v7h-7c-0.4,0-0.8,0.3-0.8,0.8s0.3,0.8,0.8,0.8h7v7
	c0,0.4,0.3,0.8,0.8,0.8s0.8-0.3,0.8-0.8v-7h7c0.4,0,0.8-0.3,0.8-0.8S860.5,128.3,860.1,128.3z"/>
<path class="st25" d="M907.9,236.9h-7v-7c0-0.4-0.3-0.8-0.8-0.8s-0.8,0.3-0.8,0.8v7h-7c-0.4,0-0.8,0.3-0.8,0.8s0.3,0.8,0.8,0.8h7v7
	c0,0.4,0.3,0.8,0.8,0.8s0.8-0.3,0.8-0.8v-7h7c0.4,0,0.8-0.3,0.8-0.8S908.4,236.9,907.9,236.9z"/>
<path class="st25" d="M1045.7,114.7l-5-5l5-5c0.3-0.3,0.3-0.8,0-1.1c-0.3-0.3-0.8-0.3-1.1,0l-5,5l-5-5c-0.3-0.3-0.8-0.3-1.1,0
	c-0.3,0.3-0.3,0.8,0,1.1l5,5l-5,5c-0.3,0.3-0.3,0.8,0,1.1c0.3,0.3,0.8,0.3,1.1,0l5-5l5,5c0.3,0.3,0.8,0.3,1.1,0
	C1046,115.5,1046,115,1045.7,114.7z"/>
<path class="st25" d="M514,241.1l-5-5l5-5c0.3-0.3,0.3-0.8,0-1.1s-0.8-0.3-1.1,0l-5,5l-5-5c-0.3-0.3-0.8-0.3-1.1,0s-0.3,0.8,0,1.1
	l5,5l-5,5c-0.3,0.3-0.3,0.8,0,1.1s0.8,0.3,1.1,0l5-5l5,5c0.3,0.3,0.8,0.3,1.1,0S514.3,241.4,514,241.1z"/>
<text transform="matrix(0.9996 -2.807000e-02 2.807000e-02 0.9996 638.3266 210.1867)" class="st2 st26 st27">`Hello ${planet}!`</text>
<text transform="matrix(0.9876 -0.1572 0.1572 0.9876 508.5261 282.9689)"><tspan x="0" y="0" class="st6 st26 st27">(</tspan><tspan x="9.6" y="0" class="st6 st26 st27 st28">)</tspan><tspan x="22.4" y="0" class="st6 st26 st27">=</tspan><tspan x="32" y="0" class="st6 st26 st27 st28">&gt;</tspan><tspan x="44.8" y="0" class="st6 st26 st27">{}</tspan></text>
<circle class="st29" cx="1084" cy="143.3" r="2.4"/>
<circle class="st29" cx="574.7" cy="359.1" r="2.4"/>
<g>
	<defs>
		<rect id="SVGID_4_" width="1500" height="501"/>
	</defs>
	<clipPath id="SVGID_5_">
		<use xlink:href="#SVGID_4_"  style="overflow:visible;"/>
	</clipPath>
	<path class="st30" d="M750,788.8c-117.6,0-228.1-45.8-311.2-128.9c-83.1-83.1-128.9-193.7-128.9-311.2
		c0-117.6,45.8-228.1,128.9-311.2C521.9-45.7,632.4-91.5,750-91.5s228.1,45.8,311.2,128.9c83.1,83.1,128.9,193.7,128.9,311.2
		c0,117.6-45.8,228.1-128.9,311.2C978.1,743,867.6,788.8,750,788.8z"/>
</g>
<g>
	<defs>
		<rect id="SVGID_6_" width="1500" height="501"/>
	</defs>
	<clipPath id="SVGID_7_">
		<use xlink:href="#SVGID_6_"  style="overflow:visible;"/>
	</clipPath>
	<path class="st31" d="M750,614.1c-71.1,0-137.8-27.7-188.1-77.9C511.7,486,484,419.2,484,348.1s27.7-137.8,77.9-188.1
		c50.2-50.2,117-77.9,188.1-77.9s137.9,27.7,188.1,77.9s77.9,117,77.9,188.1c0,71.1-27.7,137.9-77.9,188.1
		C887.8,586.5,821.1,614.1,750,614.1z"/>
</g>
<rect x="0.1" y="9.5" class="st20" width="215.6" height="490.5"/>
<line class="st32" x1="215.7" y1="20" x2="215.7" y2="500"/>
<rect y="154.8" class="st21" width="215.7" height="15"/>
<rect y="297.2" class="st21" width="215.7" height="15"/>
<rect y="439.5" class="st21" width="215.7" height="15"/>
<rect y="332.1" class="st21" width="13.4" height="107.5"/>
<rect x="16.7" y="189.8" class="st20" width="22.7" height="107.5"/>
<rect x="47.7" y="189.8" class="st20" width="22.7" height="107.5"/>
<rect x="78.7" y="189.8" class="st21" width="22.7" height="107.5"/>
<rect x="135.9" y="332.1" class="st21" width="29.2" height="107.5"/>
<rect x="173.4" y="332.1" class="st20" width="34.1" height="107.5"/>
<rect x="173.4" y="46.9" class="st20" width="34.1" height="107.5"/>
<rect x="109.7" y="215.7" class="st21" width="34.1" height="81.6"/>
<rect x="111.1" y="361.5" class="st21" width="16.5" height="78.2"/>
<rect y="211.3" class="st20" width="8.4" height="85.9"/>
<rect x="176.9" y="189.8" class="st21" width="22.7" height="107.5"/>
<rect x="152.1" y="211.3" class="st20" width="16.5" height="85.9"/>
<rect x="150.4" y="68.5" transform="matrix(0.9823 0.1872 -0.1872 0.9823 23.6597 -27.7305)" class="st20" width="16.5" height="85.9"/>
<rect x="152.1" y="472.8" transform="matrix(-1 -1.224647e-16 1.224647e-16 -1 326.9399 972.8162)" class="st20" width="22.7" height="27.2"/>
<rect x="121.1" y="472.8" transform="matrix(-1 -1.224647e-16 1.224647e-16 -1 264.9247 972.8162)" class="st20" width="22.7" height="27.2"/>
<rect x="183.1" y="486.2" transform="matrix(-1 -1.224647e-16 1.224647e-16 -1 382.7537 986.1992)" class="st20" width="16.5" height="13.8"/>
<rect x="54.5" y="339.4" transform="matrix(-1 -6.751545e-11 6.751545e-11 -1 131.6936 778.8004)" class="st20" width="22.7" height="100.1"/>
<rect x="23.5" y="339.4" transform="matrix(-1 -6.719526e-11 6.719526e-11 -1 69.6783 778.8004)" class="st20" width="22.7" height="100.1"/>
<rect x="85.5" y="359.4" transform="matrix(-1 -6.731561e-11 6.731561e-11 -1 187.5074 798.8801)" class="st20" width="16.5" height="80"/>
<rect x="90.1" y="472.8" transform="matrix(-1 -1.224647e-16 1.224647e-16 -1 202.9093 972.8162)" class="st21" width="22.7" height="27.2"/>
<rect x="47.7" y="488.9" transform="matrix(-1 -1.224647e-16 1.224647e-16 -1 129.4922 988.9077)" class="st21" width="34.1" height="11.1"/>
<rect y="472.8" transform="matrix(-1 -1.224647e-16 1.224647e-16 -1 14.6009 972.8162)" class="st21" width="14.6" height="27.2"/>
<rect x="22.9" y="486.2" transform="matrix(-1 -1.224647e-16 1.224647e-16 -1 62.2767 986.1992)" class="st20" width="16.5" height="13.8"/>
<rect x="121.9" y="87.6" transform="matrix(-1 -7.328106e-11 7.328106e-11 -1 257.7231 242.0045)" class="st21" width="13.9" height="66.7"/>
<rect x="95.9" y="103.7" transform="matrix(-1 -7.334235e-11 7.334235e-11 -1 212.7629 258.0959)" class="st21" width="20.9" height="50.6"/>
<rect x="36.6" y="109.4" transform="matrix(-8.046737e-11 1 -1 -8.046737e-11 191.3804 103.6678)" class="st21" width="14.5" height="76.3"/>
<rect x="39.6" y="77.8" transform="matrix(-8.046737e-11 1 -1 -8.046737e-11 162.8353 69.1227)" class="st21" width="14.5" height="76.3"/>
<rect x="42.1" y="95.9" transform="matrix(-6.000107e-11 1 -1 -6.000107e-11 181.8547 81.1421)" class="st20" width="16.5" height="71.3"/>
<rect y="297.2" class="st33" width="207.6" height="4.2"/>
<rect y="154.8" class="st33" width="207.6" height="4.2"/>
<rect y="439.5" class="st33" width="207.6" height="4.2"/>
<text transform="matrix(0.9731 0.2303 -0.2303 0.9731 946.8154 253.496)" class="st34 st26 st27">const</text>
<rect x="1044.4" y="361.2" transform="matrix(0.7071 0.7071 -0.7071 0.7071 566.7023 -634.9418)" class="st29" width="10.8" height="10.8"/>
<rect x="824.4" y="62.9" transform="matrix(0.7071 0.7071 -0.7071 0.7071 291.3203 -566.7615)" class="st29" width="10.8" height="10.8"/>
<rect x="632" y="14.6" transform="matrix(0.7071 0.7071 -0.7071 0.7071 200.8319 -444.851)" class="st29" width="10.8" height="10.8"/>
<circle class="st29" cx="474" cy="117.4" r="5.6"/>
<circle class="st29" cx="619.5" cy="239.8" r="5.6"/>
<circle class="st29" cx="423.4" cy="147.4" r="2.4"/>
<circle class="st29" cx="1000.1" cy="305.7" r="5.6"/>
<rect x="431.5" y="340.1" transform="matrix(0.7071 0.7071 -0.7071 0.7071 372.2238 -207.7202)" class="st29" width="10.8" height="10.8"/>
<rect x="538.9" y="310.3" transform="matrix(0.7071 0.7071 -0.7071 0.7071 382.6433 -292.4)" class="st29" width="10.8" height="10.8"/>
<circle class="st29" cx="828" cy="245" r="2.4"/>
<rect x="663.2" y="108.5" transform="matrix(0.7071 0.7071 -0.7071 0.7071 276.3146 -439.3775)" class="st29" width="10.8" height="10.8"/>
<rect x="1140.9" y="452.7" class="st23" width="359.1" height="47.3"/>
<g>
	<path class="st4" d="M1185.5,484.2h-5.1v-7.7h-2.6v2.5h-2.6v-2.5h-2.5v7.7h-5.2v-17.9h5.1v2.4h2.6v2.6h2.4v-2.5h2.6v-2.6h5.1V484.2
		z"/>
	<path class="st4" d="M1207.1,481.6h-2.4v2.6h-12.9v-2.4h-2.6v-2.6h5.1v2.4h7.8v-15.3h5.1V481.6z"/>
	<path class="st4" d="M1228.7,484.2h-5.1v-5.1h-7.6v5.1h-5.1v-12.8h2.4v-2.6h2.6v-2.6h7.7v2.4h2.6v2.6h2.6V484.2z M1223.6,476.5
		v-5.2h-2.6v-2.4h-2.6v2.6h-2.4v5.1H1223.6z"/>
	<path class="st4" d="M1250.3,476.5h-2.5v2.6h-2.6v2.6h-2.6v2.6h-2.6v-2.4h-2.6v-2.6h-2.5v-2.6h-2.6v-10.3h5.1v7.6h2.6v2.7h2.4V474
		h2.6v-7.7h5.1V476.5z"/>
	<path class="st4" d="M1271.9,484.2h-5.1v-5.1h-7.6v5.1h-5.1v-12.8h2.4v-2.6h2.6v-2.6h7.7v2.4h2.6v2.6h2.6V484.2z M1266.8,476.5
		v-5.2h-2.6v-2.4h-2.6v2.6h-2.4v5.1H1266.8z"/>
	<path class="st4" d="M1293.5,481.6h-2.4v2.6h-12.9v-2.4h-2.6v-2.6h5.1v2.4h7.6v-5h-10.2V474h-2.6v-5.1h2.4v-2.6h10.3v2.4h2.6v2.6
		h-5.1v-2.4h-5.1v5h10.2v2.6h2.6V481.6z"/>
	<path class="st4" d="M1315.1,471.3h-5.1v-2.4h-5.1v2.4h-2.6v7.7h2.5v2.6h5.1v-2.5h5.1v2.5h-2.4v2.6h-10.3v-2.4h-2.6v-2.6h-2.6v-7.8
		h2.4v-2.4h2.6v-2.6h10.3v2.4h2.6V471.3z"/>
	<path class="st4" d="M1336.7,476.5h-5.1v2.5h2.6v2.6h2.6v2.6h-7.6v-2.4h-2.6v-2.7h-2.6v5.1h-5.1v-17.9h15.4v2.5h2.6V476.5z
		 M1331.6,473.9v-5h-7.6v7.6h5.1v-2.6H1331.6z"/>
	<path class="st4" d="M1357.6,484.2h-15.4v-2.5h5.1v-12.8h-5.1v-2.6h15.4v2.5h-5.1v12.9h5.1V484.2z"/>
	<path class="st4" d="M1379.9,476.5h-2.4v2.6h-10.3v5.1h-5.1v-17.9h15.4v2.4h2.6V476.5z M1374.8,476.5v-7.6h-7.6v7.6H1374.8z"/>
	<path class="st4" d="M1397.7,468.8h-5v15.4h-5.1v-15.3h-5.2v-2.6h15.4V468.8z"/>
	<path class="st4" d="M1423.1,471.3h-5.1v-2.4h-5.1v2.4h-2.6v7.7h2.5v2.6h5.1v-2.5h5.1v2.5h-2.4v2.6h-10.3v-2.4h-2.6v-2.6h-2.6v-7.8
		h2.4v-2.4h2.6v-2.6h10.3v2.4h2.6V471.3z"/>
	<path class="st4" d="M1444.7,481.6h-2.4v2.6h-12.9v-2.4h-2.6v-12.9h2.4v-2.6h12.9v2.4h2.6V481.6z M1439.6,481.6v-12.7h-7.6v12.7
		H1439.6z"/>
	<path class="st4" d="M1466.3,484.2h-5.1v-7.7h-2.6v2.5h-2.6v-2.5h-2.5v7.7h-5.2v-17.9h5.1v2.4h2.6v2.6h2.4v-2.5h2.6v-2.6h5.1V484.2
		z"/>
</g>
<rect x="1398.1" y="481.4" class="st4" width="3.4" height="3.4"/>
<rect class="st23" width="482.4" height="61.5"/>
<rect y="61.5" class="st23" width="309.9" height="55.9"/>
<g>
	<g>
		<path class="st4" d="M45,42.1h-6.1v-9.2h-3.1v3h-3.1v-3h-3v9.2h-6.2V20.7h6.1v2.9h3.1v3.1h2.9v-3h3.1v-3.1H45V42.1z"/>
		<path class="st4" d="M70.8,39h-2.9v3.1H52.5v-2.9h-3.1V23.8h2.9v-3.1h15.4v2.9h3.1V39z M64.6,39V23.8h-9.1V39H64.6z"/>
		<path class="st4" d="M96.6,35.9h-2.9V39h-3.1v3.1H75.2V20.7h15.3v2.9h3.1v3.1h3.1V35.9z M90.4,35.9v-9.3h-3.1v-2.9h-6.1V39h6.2
			v-3.1H90.4z"/>
		<path class="st4" d="M122.4,39h-2.9v3.1h-15.4v-2.9H101V20.7h6.1V39h9.2V20.7h6.1V39z"/>
		<path class="st4" d="M143.6,42.1h-18.4V20.7h6.1V39h12.3V42.1z"/>
		<path class="st4" d="M168.8,42.1h-6.1V36h-9.1v6.1h-6.1V26.8h2.9v-3.1h3.1v-3.1h9.2v2.9h3.1v3.1h3.1V42.1z M162.7,32.9v-6.2h-3.1
			v-2.9h-3.1v3.1h-2.9v6.1H162.7z"/>
		<path class="st4" d="M194.6,32.9h-6.1v3h3.1V39h3.1v3.1h-9.1v-2.9h-3.1V36h-3.1v6.1h-6.1V20.7h18.4v3h3.1V32.9z M188.5,29.8v-6
			h-9.1v9.1h6.1v-3.1H188.5z"/>
		<path class="st4" d="M228.1,39h-2.9v3.1h-15.4v-2.9h-3.1v-3.1h6.1V39h9.3V20.7h6.1V39z"/>
		<path class="st4" d="M253.9,42.1h-6.1V36h-9.1v6.1h-6.1V26.8h2.9v-3.1h3.1v-3.1h9.2v2.9h3.1v3.1h3.1V42.1z M247.7,32.9v-6.2h-3.1
			v-2.9h-3.1v3.1h-2.9v6.1H247.7z"/>
		<path class="st4" d="M279.7,32.9h-3v3.1h-3.1V39h-3.1v3.1h-3.1v-2.9h-3.1v-3.1h-3V33h-3.1V20.7h6.1v9h3.1v3.2h2.9v-3h3.1v-9.2h6.1
			V32.9z"/>
		<path class="st4" d="M305.5,42.1h-6.1V36h-9.1v6.1h-6.1V26.8h2.9v-3.1h3.1v-3.1h9.2v2.9h3.1v3.1h3.1V42.1z M299.3,32.9v-6.2h-3.1
			v-2.9h-3.1v3.1h-2.9v6.1H299.3z"/>
		<path class="st4" d="M331.3,39h-2.9v3.1H313v-2.9h-3.1v-3.1h6.1V39h9.1v-6H313v-3.1h-3.1v-6.1h2.9v-3.1h12.3v2.9h3.1v3.1h-6.1
			v-2.9H316v5.9h12.2v3.1h3.1V39z"/>
		<path class="st4" d="M357.1,26.7H351v-2.9h-6.1v2.9h-3.1v9.2h3V39h6.1v-3h6.1v3h-2.9v3.1h-12.3v-2.9h-3.1V36h-3.1v-9.3h2.9v-2.9
			h3.1v-3.1H354v2.9h3.1V26.7z"/>
		<path class="st4" d="M382.9,32.9h-6.1v3h3.1V39h3.1v3.1h-9.1v-2.9h-3.1V36h-3.1v6.1h-6.1V20.7h18.4v3h3.1V32.9z M376.7,29.8v-6
			h-9.1v9.1h6.1v-3.1H376.7z"/>
		<path class="st4" d="M407.8,42.1h-18.4v-3h6.1V23.8h-6.1v-3.1h18.4v3h-6.1V39h6.1V42.1z"/>
		<path class="st4" d="M434.5,32.8h-2.9v3.1h-12.3v6.1h-6.1V20.7h18.4v2.9h3.1V32.8z M428.3,32.8v-9.1h-9.1v9.1H428.3z"/>
		<path class="st4" d="M455.7,23.6h-6v18.4h-6.1V23.8h-6.2v-3.1h18.4V23.6z"/>
		<path class="st4" d="M45,95.5h-2.9v3.1H23.6V77.2h18.4v3H45v6.1h-3v3.1h3V95.5z M38.8,86.3v-6h-9.1v6H38.8z M38.8,95.5v-6.1h-9.1
			v6.1H38.8z"/>
		<path class="st4" d="M70.8,95.5h-2.9v3.1H52.5v-2.9h-3.1V80.3h2.9v-3.1h15.4v2.9h3.1V95.5z M64.6,95.5V80.3h-9.1v15.2H64.6z"/>
		<path class="st4" d="M96.6,95.5h-2.9v3.1H78.3v-2.9h-3.1V80.3h2.9v-3.1h15.4v2.9h3.1V95.5z M90.4,95.5V80.3h-9.1v15.2H90.4z"/>
		<path class="st4" d="M122.4,98.6h-9.1v-3.1h-3.1v-3.2h-3v6.2H101V77.2h6.1v9h3v-3h3.1v-3.1h3.1v-3h6.1v3h-2.9v3.1h-3.1v3h-3.1v3.1
			h3v3.1h3.1v3.1h3.1V98.6z"/>
		<path class="st4" d="M155.8,95.5h-2.9v3.1h-15.4v-2.9h-3.1v-3.1h6.1v2.9h9.1v-6h-12.2v-3.1h-3.1v-6.1h2.9v-3.1h12.3v2.9h3.1v3.1
			h-6.1v-2.9h-6.1v5.9h12.2v3.1h3.1V95.5z"/>
		<path class="st4" d="M182,98.5h-21.7V76.8H182v3h-15.4V86h9.2v3.2h-9.2v6.2H182V98.5z"/>
		<path class="st4" d="M207.4,89.4h-6.1v3h3.1v3.1h3.1v3.1h-9.1v-2.9h-3.1v-3.2h-3.1v6.1H186V77.2h18.4v3h3.1V89.4z M201.3,86.3v-6
			h-9.1v9.1h6.1v-3.1H201.3z"/>
		<path class="st4" d="M232.3,98.6H214v-3h6.1V80.3H214v-3.1h18.4v3h-6.1v15.4h6.1V98.6z"/>
		<path class="st4" d="M259.4,98.5h-21.7V76.8h21.7v3H244V86h9.2v3.2H244v6.2h15.4V98.5z"/>
		<path class="st4" d="M284.8,95.5h-2.9v3.1h-15.4v-2.9h-3.1v-3.1h6.1v2.9h9.1v-6h-12.2v-3.1h-3.1v-6.1h2.9v-3.1h12.3v2.9h3.1v3.1
			h-6.1v-2.9h-6.1v5.9h12.2v3.1h3.1V95.5z"/>
	</g>
</g>
<circle class="st29" cx="939" cy="297.3" r="2.4"/>
<path class="st35" d="M745.7,450.1c0-2.4,1.9-4.3,4.3-4.3s4.3,1.9,4.3,4.3v51.3h-8.5V450.1z"/>
<g>
	<defs>
		<rect id="SVGID_8_" width="1500" height="501"/>
	</defs>
	<clipPath id="SVGID_9_">
		<use xlink:href="#SVGID_8_"  style="overflow:visible;"/>
	</clipPath>
	<path class="st36" d="M909.8,188.4c-42.7-42.7-99.4-66.2-159.8-66.2c-60.3,0-117.1,23.5-159.8,66.2
		c-42.7,42.7-66.2,99.4-66.2,159.8s23.5,117.1,66.2,159.8s99.4,66.2,159.8,66.2c60.3,0,117.1-23.5,159.8-66.2
		c42.7-42.7,66.2-99.4,66.2-159.8S952.4,231,909.8,188.4z"/>
</g>
<linearGradient id="SVGID_10_" gradientUnits="userSpaceOnUse" x1="750" y1="1204.377" x2="750" y2="705.9458">
	<stop  offset="0" style="stop-color:#601E7E"/>
	<stop  offset="1" style="stop-color:#44185B"/>
</linearGradient>
<rect y="703" class="st37" width="1500" height="501.4"/>
<g>
	<path class="st2" d="M508.7,1112.9c0-9.4-7.6-17.1-17.1-17.1c-9.4,0-17.1,7.6-17.1,17.1v17.3h34.1V1112.9z"/>
	<path class="st2" d="M524.1,1124.2c0-4.7-3.8-8.5-8.5-8.5s-8.5,3.8-8.5,8.5v8.7h17.1V1124.2z"/>
	<polygon class="st3" points="529.8,1130.2 469,1130.2 469,1144 475.4,1144 478.8,1184.8 520.1,1184.8 523.5,1144 529.8,1144 	"/>
</g>
<g>
	<rect x="701.1" y="731.1" class="st4" width="98.1" height="146.2"/>
	<line class="st5" x1="713.5" y1="867" x2="786.8" y2="867"/>
	<rect x="713.5" y="730.1" width="85.7" height="6"/>
	<rect x="701.1" y="750.4" class="st2" width="82" height="23.1"/>
	<g>
		<path class="st4" d="M706.8,755.6h2.2v9.8c0,1,0.4,1.4,1.2,1.4c0.8,0,1.2-0.5,1.2-1.4v-9.8h2.2v9.7c0,2.2-1.3,3.5-3.4,3.5
			c-2.1,0-3.4-1.2-3.4-3.5V755.6z"/>
		<path class="st4" d="M715.8,768.6v-13h2.1l2.7,7.4h0v-7.4h2v13h-1.9l-2.8-8.1h0v8.1H715.8z"/>
		<path class="st4" d="M725.1,768.6v-13h2.2v13H725.1z"/>
		<path class="st4" d="M734.4,755.6h2.2l-2.7,13h-2.2l-2.7-13h2.2l1.6,9h0L734.4,755.6z"/>
		<path class="st4" d="M737.8,768.6v-13h6v1.9H740v3.3h2.9v1.9H740v3.8h4v1.9H737.8z"/>
		<path class="st4" d="M748,768.6h-2.2v-13h3.1c2.5,0,3.8,1.1,3.8,3.8c0,2.1-0.8,2.9-1.6,3.3l1.9,5.9h-2.3l-1.6-5.4
			c-0.3,0-0.8,0.1-1.2,0.1V768.6z M748,761.5h0.8c1.2,0,1.7-0.5,1.7-2s-0.5-2-1.7-2H748V761.5z"/>
		<path class="st4" d="M758.9,758.8c-0.1-1.1-0.7-1.4-1.2-1.4c-0.7,0-1.1,0.5-1.1,1.3c0,2.2,4.5,3.3,4.5,6.8c0,2.1-1.4,3.3-3.5,3.3
			c-2.1,0-3.3-1.7-3.3-3.6l2.1-0.3c0.1,1.3,0.6,2,1.3,2c0.8,0,1.3-0.4,1.3-1.2c0-2.6-4.5-3.3-4.5-7c0-2.1,1.3-3.2,3.5-3.2
			c1.8,0,2.9,1.3,3.1,3.2L758.9,758.8z"/>
		<path class="st4" d="M764.1,768.6h-2.2l2.4-13h2.8l2.4,13h-2.2l-0.4-2.9h-2.4L764.1,768.6z M764.8,763.8h1.8l-0.9-5.6h0
			L764.8,763.8z"/>
		<path class="st4" d="M770.7,768.6v-13h2.2v11.1h3.5v1.9H770.7z"/>
	</g>
	<g>
		<rect x="711.6" y="778.2" class="st2" width="87.6" height="23.1"/>
		<g>
			<path class="st4" d="M717.8,794.7h0.5c0.9,0,1.2-0.4,1.2-1.1v-10.2h2.2v10.4c0,1.7-0.7,2.8-3.1,2.8h-0.7V794.7z"/>
			<path class="st4" d="M725.1,796.4h-2.2l2.4-13h2.8l2.4,13h-2.2l-0.4-2.9h-2.4L725.1,796.4z M725.8,791.6h1.8l-0.9-5.6h0
				L725.8,791.6z"/>
			<path class="st4" d="M735.7,783.4h2.2l-2.7,13h-2.2l-2.7-13h2.2l1.6,9h0L735.7,783.4z"/>
			<path class="st4" d="M739.8,796.4h-2.2l2.4-13h2.8l2.4,13H743l-0.4-2.9h-2.4L739.8,796.4z M740.5,791.6h1.8l-0.9-5.6h0
				L740.5,791.6z"/>
			<path class="st4" d="M750.5,786.7c-0.1-1.1-0.7-1.4-1.2-1.4c-0.7,0-1.1,0.5-1.1,1.3c0,2.2,4.5,3.3,4.5,6.8c0,2.1-1.4,3.3-3.5,3.3
				c-2.1,0-3.3-1.7-3.3-3.6l2.1-0.3c0.1,1.3,0.6,2,1.3,2c0.8,0,1.3-0.4,1.3-1.2c0-2.6-4.5-3.3-4.5-7c0-2.1,1.3-3.2,3.5-3.2
				c1.8,0,2.9,1.3,3.1,3.2L750.5,786.7z"/>
			<path class="st4" d="M758.9,787.8v-1c0-1.1-0.5-1.6-1.1-1.6c-0.9,0-1.2,0.5-1.2,1.4v6.6c0,1,0.3,1.4,1.2,1.4
				c0.8,0,1.1-0.5,1.1-1.3v-1.6h2.2v1.5c0,1.8-1.1,3.3-3.3,3.3c-2.3,0-3.4-1.5-3.4-3.3v-6.7c0-1.8,1.1-3.3,3.4-3.3
				c2.2,0,3.3,1.6,3.3,3.6v1H758.9z"/>
			<path class="st4" d="M765.7,796.4h-2.2v-13h3.1c2.5,0,3.8,1.1,3.8,3.8c0,2.1-0.8,2.9-1.6,3.3l1.9,5.9h-2.3l-1.6-5.4
				c-0.3,0-0.8,0.1-1.2,0.1V796.4z M765.7,789.3h0.8c1.2,0,1.7-0.5,1.7-2s-0.5-2-1.7-2h-0.8V789.3z"/>
			<path class="st4" d="M772.8,796.4v-13h2.2v13H772.8z"/>
			<path class="st4" d="M777.5,796.4v-13h3.2c2.8,0,4,1.1,4,3.8s-1.3,3.8-4,3.8h-1v5.3H777.5z M779.7,789.3h0.9c1.5,0,1.9-0.5,1.9-2
				s-0.5-2-1.9-2h-0.9V789.3z"/>
			<path class="st4" d="M787.7,785.4h-2.2v-1.9h6.6v1.9H790v11.1h-2.2V785.4z"/>
		</g>
	</g>
	<rect x="700.8" y="833.8" class="st2" width="98.4" height="23.1"/>
	<g>
		<path class="st4" d="M706.8,852.1v-13h6v1.9H709v3.3h2.9v1.9H709v3.8h4v1.9H706.8z"/>
		<path class="st4" d="M719.4,839.1h2.2l-2.7,13h-2.2l-2.7-13h2.2l1.6,9h0L719.4,839.1z"/>
		<path class="st4" d="M722.8,852.1v-13h6v1.9H725v3.3h2.9v1.9H725v3.8h4v1.9H722.8z"/>
		<path class="st4" d="M733,852.1h-2.2v-13h3.1c2.5,0,3.8,1.1,3.8,3.8c0,2.1-0.8,2.9-1.6,3.3l1.9,5.9h-2.3l-1.6-5.4
			c-0.3,0-0.8,0.1-1.2,0.1V852.1z M733,844.9h0.8c1.2,0,1.7-0.5,1.7-2s-0.5-2-1.7-2H733V844.9z"/>
		<path class="st4" d="M743.5,852.1h-2.2v-5.4l-2.7-7.6h2.3l1.6,5h0l1.5-5h2.3l-2.7,7.6V852.1z"/>
		<path class="st4" d="M751.3,839.1h1.8l1.5,8.3h0l1.2-8.3h2.1l-2.3,13h-1.9l-1.6-8.6h0l-1.5,8.6h-1.9l-2.5-13h2.1l1.4,8.3h0
			L751.3,839.1z"/>
		<path class="st4" d="M759.5,852.1v-13h2.2v5.3h2.4v-5.3h2.2v13h-2.2v-5.8h-2.4v5.8H759.5z"/>
		<path class="st4" d="M768.5,852.1v-13h6v1.9h-3.7v3.3h2.9v1.9h-2.9v3.8h4v1.9H768.5z"/>
		<path class="st4" d="M778.7,852.1h-2.2v-13h3.1c2.5,0,3.8,1.1,3.8,3.8c0,2.1-0.8,2.9-1.6,3.3l1.9,5.9h-2.3l-1.6-5.4
			c-0.3,0-0.8,0.1-1.2,0.1V852.1z M778.7,844.9h0.8c1.2,0,1.7-0.5,1.7-2s-0.5-2-1.7-2h-0.8V844.9z"/>
		<path class="st4" d="M785.4,852.1v-13h6v1.9h-3.7v3.3h2.9v1.9h-2.9v3.8h4v1.9H785.4z"/>
	</g>
	<rect x="701.1" y="806" class="st2" width="71.8" height="23.1"/>
	<g>
		<path class="st4" d="M715.8,811.3v13h-1.9v-10.2h0l-2,10.2h-1.1l-2-10.2h0v10.2h-1.9v-13h2.9l1.6,7.6h0l1.6-7.6H715.8z"/>
		<path class="st4" d="M717.8,814.4c0-1.8,1.1-3.3,3.4-3.3s3.4,1.5,3.4,3.3v6.7c0,1.8-1.1,3.3-3.4,3.3s-3.4-1.5-3.4-3.3V814.4z
			 M720,821c0,1,0.3,1.4,1.2,1.4s1.2-0.5,1.2-1.4v-6.6c0-1-0.3-1.4-1.2-1.4s-1.2,0.5-1.2,1.4V821z"/>
		<path class="st4" d="M726.8,811.3h3.3c2.3,0,3.5,1.3,3.5,3.9v5.1c0,2.7-1.2,3.9-3.5,3.9h-3.3V811.3z M729,822.4h0.8
			c1.2,0,1.6-0.5,1.6-1.8v-5.7c0-1.4-0.4-1.8-1.6-1.8H729V822.4z"/>
		<path class="st4" d="M735.8,811.3h2.2v9.8c0,1,0.4,1.4,1.2,1.4c0.8,0,1.2-0.5,1.2-1.4v-9.8h2.2v9.7c0,2.2-1.3,3.5-3.4,3.5
			c-2.1,0-3.4-1.2-3.4-3.5V811.3z"/>
		<path class="st4" d="M744.7,824.3v-13h2.2v11.1h3.5v1.9H744.7z"/>
		<path class="st4" d="M751.8,824.3v-13h6v1.9H754v3.3h2.9v1.9H754v3.8h4v1.9H751.8z"/>
		<path class="st4" d="M763.9,814.5c-0.1-1.1-0.7-1.4-1.2-1.4c-0.7,0-1.1,0.5-1.1,1.3c0,2.2,4.5,3.3,4.5,6.8c0,2.1-1.4,3.3-3.5,3.3
			c-2.1,0-3.3-1.7-3.3-3.6l2.1-0.3c0.1,1.3,0.6,2,1.3,2c0.8,0,1.3-0.4,1.3-1.2c0-2.6-4.5-3.3-4.5-7c0-2.1,1.3-3.2,3.5-3.2
			c1.8,0,2.9,1.3,3.1,3.2L763.9,814.5z"/>
	</g>
</g>
<g>
	<rect x="1075.1" y="870.4" class="st4" width="98.1" height="146.2"/>
	<line class="st5" x1="1087.6" y1="1006.4" x2="1160.8" y2="1006.4"/>
	<rect x="1087.6" y="869.4" width="85.7" height="6"/>
	<g>
		<g>
			<rect x="1075.1" y="889.7" class="st2" width="82" height="23.1"/>
			<g>
				<path class="st4" d="M1080.9,895h3.3c2.3,0,3.5,1.3,3.5,3.9v5.1c0,2.7-1.2,3.9-3.5,3.9h-3.3V895z M1083.1,906.2h0.8
					c1.2,0,1.6-0.5,1.6-1.8v-5.7c0-1.4-0.4-1.8-1.6-1.8h-0.8V906.2z"/>
				<path class="st4" d="M1089.9,908v-13h6v1.9h-3.7v3.3h2.9v1.9h-2.9v3.8h4v1.9H1089.9z"/>
				<path class="st4" d="M1097.9,908v-13h3.2c2.8,0,4,1.1,4,3.8s-1.3,3.8-4,3.8h-1v5.3H1097.9z M1100.1,900.8h0.9
					c1.5,0,1.9-0.5,1.9-2s-0.5-2-1.9-2h-0.9V900.8z"/>
				<path class="st4" d="M1106.8,908v-13h2.2v11.1h3.5v1.9H1106.8z"/>
				<path class="st4" d="M1113.9,898.2c0-1.8,1.1-3.3,3.4-3.3s3.4,1.5,3.4,3.3v6.7c0,1.8-1.1,3.3-3.4,3.3s-3.4-1.5-3.4-3.3V898.2z
					 M1116.1,904.8c0,1,0.3,1.4,1.2,1.4s1.2-0.5,1.2-1.4v-6.6c0-1-0.3-1.4-1.2-1.4s-1.2,0.5-1.2,1.4V904.8z"/>
				<path class="st4" d="M1126.9,908h-2.2v-5.4l-2.7-7.6h2.3l1.6,5h0l1.5-5h2.3l-2.7,7.6V908z"/>
				<path class="st4" d="M1131.2,908v-13h2.2v13H1131.2z"/>
				<path class="st4" d="M1135.9,908v-13h2.1l2.7,7.4h0V895h2v13h-1.9l-2.8-8.1h0v8.1H1135.9z"/>
				<path class="st4" d="M1147.9,901.4h3.7v6.6h-1.1l-0.4-1c-0.7,0.8-1.2,1.2-2.3,1.2c-1.8,0-3-1.3-3-3.3v-6.7
					c0-1.8,1.1-3.3,3.3-3.3c2.2,0,3.3,1.6,3.3,3.6v0.8h-2.1c0-1.9-0.4-2.4-1.3-2.4c-0.5,0-1,0.3-1,1.4v6.7c0,0.8,0.3,1.4,1,1.4
					c0.9,0,1.2-0.5,1.2-1.8v-1.3h-1.4V901.4z"/>
			</g>
		</g>
		<g>
			<rect x="1106.6" y="917.5" class="st2" width="66.6" height="23.1"/>
			<g>
				<path class="st4" d="M1122.8,922.8v13h-1.9v-10.2h0l-2,10.2h-1.1l-2-10.2h0v10.2h-1.9v-13h2.9l1.6,7.6h0l1.6-7.6H1122.8z"/>
				<path class="st4" d="M1124.9,926c0-1.8,1.1-3.3,3.4-3.3s3.4,1.5,3.4,3.3v6.7c0,1.8-1.1,3.3-3.4,3.3s-3.4-1.5-3.4-3.3V926z
					 M1127.1,932.6c0,1,0.3,1.4,1.2,1.4s1.2-0.5,1.2-1.4V926c0-1-0.3-1.4-1.2-1.4s-1.2,0.5-1.2,1.4V932.6z"/>
				<path class="st4" d="M1133.9,922.8h3.3c2.3,0,3.5,1.3,3.5,3.9v5.1c0,2.7-1.2,3.9-3.5,3.9h-3.3V922.8z M1136.1,934h0.8
					c1.2,0,1.6-0.5,1.6-1.8v-5.7c0-1.4-0.4-1.8-1.6-1.8h-0.8V934z"/>
				<path class="st4" d="M1142.9,935.8v-13h6v1.9h-3.7v3.3h2.9v1.9h-2.9v3.8h4v1.9H1142.9z"/>
				<path class="st4" d="M1153.1,935.8h-2.2v-13h3.1c2.5,0,3.8,1.1,3.8,3.8c0,2.1-0.8,2.9-1.6,3.3l1.9,5.9h-2.3l-1.6-5.4
					c-0.3,0-0.8,0.1-1.2,0.1V935.8z M1153.1,928.6h0.8c1.2,0,1.7-0.4,1.7-2s-0.5-2-1.7-2h-0.8V928.6z"/>
				<path class="st4" d="M1159.9,935.8v-13h2.1l2.7,7.4h0v-7.4h2v13h-1.9l-2.8-8.1h0v8.1H1159.9z"/>
			</g>
		</g>
		<g>
			<rect x="1126.9" y="973.2" class="st2" width="46.4" height="23.1"/>
			<g>
				<path class="st4" d="M1136.2,991.4h-2.2l2.4-13h2.8l2.4,13h-2.2l-0.4-2.9h-2.4L1136.2,991.4z M1136.9,986.6h1.8l-0.9-5.6h0
					L1136.9,986.6z"/>
				<path class="st4" d="M1142.9,991.4v-13h3.2c2.8,0,4,1.1,4,3.8s-1.3,3.8-4,3.8h-1v5.3H1142.9z M1145.1,984.3h0.9
					c1.5,0,1.9-0.5,1.9-2s-0.5-2-1.9-2h-0.9V984.3z"/>
				<path class="st4" d="M1151.9,991.4v-13h3.2c2.8,0,4,1.1,4,3.8s-1.3,3.8-4,3.8h-1v5.3H1151.9z M1154.1,984.3h0.9
					c1.5,0,1.9-0.5,1.9-2s-0.5-2-1.9-2h-0.9V984.3z"/>
				<path class="st4" d="M1164.9,981.6c-0.1-1.1-0.7-1.4-1.2-1.4c-0.7,0-1.1,0.5-1.1,1.3c0,2.2,4.5,3.3,4.5,6.8
					c0,2.1-1.4,3.3-3.5,3.3c-2.1,0-3.3-1.7-3.3-3.6l2.1-0.3c0.1,1.3,0.6,2,1.3,2c0.8,0,1.3-0.4,1.3-1.2c0-2.6-4.5-3.3-4.5-7
					c0-2.1,1.3-3.2,3.5-3.2c1.8,0,2.9,1.3,3.1,3.2L1164.9,981.6z"/>
			</g>
		</g>
		<g>
			<rect x="1075.1" y="945.4" class="st2" width="85.7" height="23.1"/>
			<g>
				<path class="st4" d="M1079.8,961.9h0.5c0.9,0,1.2-0.4,1.2-1.1v-10.2h2.2V961c0,1.7-0.7,2.8-3.1,2.8h-0.7V961.9z"/>
				<path class="st4" d="M1087.2,963.6h-2.2l2.4-13h2.8l2.4,13h-2.2l-0.4-2.9h-2.4L1087.2,963.6z M1087.9,958.8h1.8l-0.9-5.6h0
					L1087.9,958.8z"/>
				<path class="st4" d="M1097.8,950.6h2.2l-2.7,13h-2.2l-2.7-13h2.2l1.6,9h0L1097.8,950.6z"/>
				<path class="st4" d="M1101.8,963.6h-2.2l2.4-13h2.8l2.4,13h-2.2l-0.4-2.9h-2.4L1101.8,963.6z M1102.5,958.8h1.8l-0.9-5.6h0
					L1102.5,958.8z"/>
				<path class="st4" d="M1112.6,953.8c-0.1-1.1-0.7-1.4-1.2-1.4c-0.7,0-1.1,0.5-1.1,1.3c0,2.2,4.5,3.3,4.5,6.8
					c0,2.1-1.4,3.3-3.5,3.3c-2.1,0-3.3-1.7-3.3-3.6l2.1-0.3c0.1,1.3,0.6,2,1.3,2c0.8,0,1.3-0.4,1.3-1.2c0-2.6-4.5-3.3-4.5-7
					c0-2.1,1.3-3.2,3.5-3.2c1.8,0,2.9,1.3,3.1,3.2L1112.6,953.8z"/>
				<path class="st4" d="M1121,955v-1c0-1.1-0.5-1.6-1.1-1.6c-0.9,0-1.2,0.5-1.2,1.4v6.6c0,1,0.3,1.4,1.2,1.4c0.8,0,1.1-0.5,1.1-1.3
					V959h2.2v1.5c0,1.8-1.1,3.3-3.3,3.3c-2.3,0-3.4-1.5-3.4-3.3v-6.7c0-1.8,1.1-3.3,3.4-3.3c2.2,0,3.3,1.6,3.3,3.6v1H1121z"/>
				<path class="st4" d="M1127.7,963.6h-2.2v-13h3.1c2.5,0,3.8,1.1,3.8,3.8c0,2.1-0.8,2.9-1.6,3.3l1.9,5.9h-2.3l-1.6-5.4
					c-0.3,0-0.8,0.1-1.2,0.1V963.6z M1127.7,956.5h0.8c1.2,0,1.7-0.5,1.7-2s-0.5-2-1.7-2h-0.8V956.5z"/>
				<path class="st4" d="M1134.8,963.6v-13h2.2v13H1134.8z"/>
				<path class="st4" d="M1139.5,963.6v-13h3.2c2.8,0,4,1.1,4,3.8s-1.3,3.8-4,3.8h-1v5.3H1139.5z M1141.7,956.5h0.9
					c1.5,0,1.9-0.5,1.9-2s-0.5-2-1.9-2h-0.9V956.5z"/>
				<path class="st4" d="M1149.8,952.6h-2.2v-1.9h6.6v1.9h-2.2v11.1h-2.2V952.6z"/>
			</g>
		</g>
	</g>
</g>
<g>
	<rect x="326.7" y="870.4" class="st4" width="98.1" height="146.2"/>
	<line class="st5" x1="339.2" y1="1006.4" x2="412.4" y2="1006.4"/>
	<rect x="339.2" y="869.4" width="85.7" height="6"/>
	<g>
		<rect x="326.7" y="904.6" class="st2" width="82" height="23.1"/>
		<rect x="362.4" y="939.3" class="st2" width="62.5" height="42"/>
		<g>
			<path class="st4" d="M332.5,922.8v-13h3.2c2.8,0,4,1.1,4,3.8c0,2.8-1.3,3.8-4,3.8h-1v5.3H332.5z M334.7,915.7h0.9
				c1.5,0,1.9-0.5,1.9-2c0-1.5-0.5-2-1.9-2h-0.9V915.7z"/>
			<path class="st4" d="M343.7,922.8h-2.2v-13h3.1c2.5,0,3.8,1.1,3.8,3.8c0,2.1-0.8,2.9-1.6,3.3l1.9,5.9h-2.3l-1.6-5.4
				c-0.3,0-0.8,0.1-1.2,0.1V922.8z M343.7,915.7h0.8c1.2,0,1.7-0.5,1.7-2c0-1.5-0.5-2-1.7-2h-0.8V915.7z"/>
			<path class="st4" d="M351.8,922.8h-2.2l2.4-13h2.8l2.4,13H355l-0.4-2.9h-2.4L351.8,922.8z M352.5,918h1.8l-0.9-5.6h0L352.5,918z"
				/>
			<path class="st4" d="M363,914.2v-1c0-1.1-0.5-1.6-1.1-1.6c-0.9,0-1.2,0.5-1.2,1.4v6.6c0,1,0.3,1.4,1.2,1.4c0.8,0,1.1-0.5,1.1-1.3
				v-1.6h2.2v1.5c0,1.8-1.1,3.3-3.3,3.3c-2.3,0-3.4-1.5-3.4-3.3V913c0-1.8,1.1-3.3,3.4-3.3c2.2,0,3.3,1.6,3.3,3.6v1H363z"/>
			<path class="st4" d="M368.8,911.8h-2.2v-1.9h6.6v1.9H371v11.1h-2.2V911.8z"/>
			<path class="st4" d="M374.8,922.8v-13h2.2v13H374.8z"/>
			<path class="st4" d="M384,914.2v-1c0-1.1-0.5-1.6-1.1-1.6c-0.9,0-1.2,0.5-1.2,1.4v6.6c0,1,0.3,1.4,1.2,1.4c0.8,0,1.1-0.5,1.1-1.3
				v-1.6h2.2v1.5c0,1.8-1.1,3.3-3.3,3.3c-2.3,0-3.4-1.5-3.4-3.3V913c0-1.8,1.1-3.3,3.4-3.3c2.2,0,3.3,1.6,3.3,3.6v1H384z"/>
			<path class="st4" d="M389.8,922.8h-2.2l2.4-13h2.8l2.4,13H393l-0.4-2.9h-2.4L389.8,922.8z M390.5,918h1.8l-0.9-5.6h0L390.5,918z"
				/>
			<path class="st4" d="M396.3,922.8v-13h2.2v11.1h3.5v1.9H396.3z"/>
		</g>
		<g>
			<path class="st4" d="M374.5,972.4v-23.8h11v3.6h-6.9v6.1h5.3v3.6h-5.3v7h7.3v3.6H374.5z"/>
			<path class="st4" d="M396.7,954.4c-0.2-2-1.3-2.6-2.2-2.6c-1.3,0-2,0.9-2,2.3c0,4.1,8.3,6,8.3,12.5c0,3.9-2.6,6.1-6.5,6.1
				c-3.8,0-6-3-6.1-6.6l3.9-0.6c0.2,2.4,1.1,3.6,2.4,3.6c1.4,0,2.4-0.8,2.4-2.2c0-4.7-8.3-6-8.3-12.8c0-3.8,2.3-5.9,6.3-5.9
				c3.3,0,5.3,2.4,5.7,5.8L396.7,954.4z"/>
			<path class="st4" d="M410.9,954.9v-1.2c0-1.6-0.5-2.3-1.7-2.3s-1.9,0.7-1.9,2.3v5.6c1.1-1.1,1.7-1.6,3.4-1.6
				c2.4,0,4.4,1.4,4.4,4.9v2.8c0,5-1.7,7.3-5.8,7.3c-4.1,0-5.8-2-5.8-6.5v-11.4c0-4.5,1.7-6.5,5.8-6.5c3.2-0.1,5.3,2.2,5.3,5.3v1.5
				H410.9z M407.3,967.2c0,1.6,0.7,2.3,1.9,2.3s1.9-0.7,1.9-2.3v-4c0-1.6-0.7-2.3-1.7-2.3c-0.7,0-1.6,0.7-2.1,1.1V967.2z"/>
		</g>
	</g>
</g>
<g>
	<rect x="912.5" y="752.9" class="st4" width="98.1" height="146.2"/>
	<line class="st5" x1="926.6" y1="888.4" x2="999.9" y2="888.4"/>
	<rect x="925" y="751.9" width="85.7" height="6"/>
	<g>
		<g>
			<rect x="912.5" y="780.1" class="st2" width="64.3" height="23.1"/>
			<g>
				<path class="st4" d="M919.5,787.2h-2.2v-1.9h6.6v1.9h-2.2v11.1h-2.2V787.2z"/>
				<path class="st4" d="M925.2,798.2v-13h6v1.9h-3.7v3.3h2.9v1.9h-2.9v3.8h4v1.9H925.2z"/>
				<path class="st4" d="M937.3,788.4c-0.1-1.1-0.7-1.4-1.2-1.4c-0.7,0-1.1,0.5-1.1,1.3c0,2.2,4.5,3.3,4.5,6.8
					c0,2.1-1.4,3.3-3.5,3.3c-2.1,0-3.3-1.7-3.3-3.6l2.1-0.3c0.1,1.3,0.6,2,1.3,2c0.8,0,1.3-0.4,1.3-1.2c0-2.6-4.5-3.3-4.5-7
					c0-2.1,1.3-3.2,3.5-3.2c1.8,0,2.9,1.3,3.1,3.2L937.3,788.4z"/>
				<path class="st4" d="M942.5,787.2h-2.2v-1.9h6.6v1.9h-2.2v11.1h-2.2V787.2z"/>
				<path class="st4" d="M948.5,798.2v-13h2.2v13H948.5z"/>
				<path class="st4" d="M953.2,798.2v-13h2.1l2.7,7.4h0v-7.4h2v13h-1.9l-2.8-8.1h0v8.1H953.2z"/>
				<path class="st4" d="M965.3,791.6h3.7v6.6h-1.1l-0.4-1c-0.7,0.8-1.2,1.2-2.3,1.2c-1.8,0-3-1.3-3-3.3v-6.7c0-1.8,1.1-3.3,3.3-3.3
					c2.2,0,3.3,1.6,3.3,3.6v0.8h-2.1c0-1.9-0.4-2.4-1.3-2.4c-0.5,0-1,0.3-1,1.4v6.7c0,0.8,0.3,1.4,1,1.4c0.9,0,1.2-0.5,1.2-1.8v-1.3
					h-1.4V791.6z"/>
			</g>
		</g>
		<g>
			<rect x="922.2" y="813.7" class="st2" width="88.5" height="23.1"/>
			<g>
				<path class="st4" d="M930.2,831.2h0.5c0.9,0,1.2-0.4,1.2-1.1V820h2.2v10.4c0,1.7-0.7,2.8-3.1,2.8h-0.7V831.2z"/>
				<path class="st4" d="M937.5,833h-2.2l2.4-13h2.8l2.4,13h-2.2l-0.4-2.9h-2.4L937.5,833z M938.3,828.1h1.8l-0.9-5.6h0L938.3,828.1
					z"/>
				<path class="st4" d="M948.1,820h2.2l-2.7,13h-2.2l-2.7-13h2.2l1.6,9h0L948.1,820z"/>
				<path class="st4" d="M952.2,833H950l2.4-13h2.8l2.4,13h-2.2l-0.4-2.9h-2.4L952.2,833z M952.9,828.1h1.8l-0.9-5.6h0L952.9,828.1z
					"/>
				<path class="st4" d="M963,823.2c-0.1-1.1-0.7-1.4-1.2-1.4c-0.7,0-1.1,0.5-1.1,1.3c0,2.2,4.5,3.3,4.5,6.8c0,2.1-1.4,3.3-3.5,3.3
					c-2.1,0-3.3-1.7-3.3-3.6l2.1-0.3c0.1,1.3,0.6,2,1.3,2c0.8,0,1.3-0.4,1.3-1.2c0-2.6-4.5-3.3-4.5-7c0-2.1,1.3-3.2,3.5-3.2
					c1.8,0,2.9,1.3,3.1,3.2L963,823.2z"/>
				<path class="st4" d="M971.4,824.3v-1c0-1.1-0.5-1.6-1.1-1.6c-0.9,0-1.2,0.5-1.2,1.4v6.6c0,1,0.3,1.4,1.2,1.4
					c0.8,0,1.1-0.5,1.1-1.3v-1.6h2.2v1.5c0,1.8-1.1,3.3-3.3,3.3c-2.3,0-3.4-1.5-3.4-3.3v-6.7c0-1.8,1.1-3.3,3.4-3.3
					c2.2,0,3.3,1.6,3.3,3.6v1H971.4z"/>
				<path class="st4" d="M978.1,833h-2.2v-13h3.1c2.5,0,3.8,1.1,3.8,3.8c0,2.1-0.8,2.9-1.6,3.3l1.9,5.9h-2.3l-1.6-5.4
					c-0.3,0-0.8,0.1-1.2,0.1V833z M978.1,825.8h0.8c1.2,0,1.7-0.5,1.7-2c0-1.5-0.5-2-1.7-2h-0.8V825.8z"/>
				<path class="st4" d="M985.2,833v-13h2.2v13H985.2z"/>
				<path class="st4" d="M989.9,833v-13h3.2c2.8,0,4,1.1,4,3.8c0,2.8-1.3,3.8-4,3.8h-1v5.3H989.9z M992.1,825.8h0.9
					c1.5,0,1.9-0.5,1.9-2c0-1.5-0.5-2-1.9-2h-0.9V825.8z"/>
				<path class="st4" d="M1000.2,821.9H998V820h6.6v1.9h-2.2V833h-2.2V821.9z"/>
			</g>
		</g>
		<g>
			<rect x="912.5" y="847.7" class="st2" width="72.3" height="23.1"/>
			<g>
				<path class="st4" d="M927.2,853v13h-1.9v-10.2h0l-2,10.2h-1.1l-2-10.2h0V866h-1.9v-13h2.9l1.6,7.6h0l1.6-7.6H927.2z"/>
				<path class="st4" d="M929.2,856.1c0-1.8,1.1-3.3,3.4-3.3s3.4,1.5,3.4,3.3v6.7c0,1.8-1.1,3.3-3.4,3.3s-3.4-1.5-3.4-3.3V856.1z
					 M931.5,862.8c0,1,0.3,1.4,1.2,1.4s1.2-0.5,1.2-1.4v-6.6c0-1-0.3-1.4-1.2-1.4s-1.2,0.5-1.2,1.4V862.8z"/>
				<path class="st4" d="M938.2,853h3.3c2.3,0,3.5,1.3,3.5,3.9v5.1c0,2.7-1.2,3.9-3.5,3.9h-3.3V853z M940.5,864.2h0.8
					c1.2,0,1.6-0.5,1.6-1.8v-5.7c0-1.4-0.4-1.8-1.6-1.8h-0.8V864.2z"/>
				<path class="st4" d="M947.2,853h2.2v9.8c0,1,0.4,1.4,1.2,1.4c0.8,0,1.2-0.5,1.2-1.4V853h2.2v9.7c0,2.2-1.3,3.5-3.4,3.5
					c-2.1,0-3.4-1.2-3.4-3.5V853z"/>
				<path class="st4" d="M956.1,866v-13h2.2V864h3.5v1.9H956.1z"/>
				<path class="st4" d="M963.2,866v-13h6v1.9h-3.7v3.3h2.9v1.9h-2.9v3.8h4v1.9H963.2z"/>
				<path class="st4" d="M975.3,856.2c-0.1-1.1-0.7-1.4-1.2-1.4c-0.7,0-1.1,0.5-1.1,1.3c0,2.2,4.5,3.3,4.5,6.8
					c0,2.1-1.4,3.3-3.5,3.3c-2.1,0-3.3-1.7-3.3-3.6l2.1-0.3c0.1,1.3,0.6,2,1.3,2c0.8,0,1.3-0.4,1.3-1.2c0-2.6-4.5-3.3-4.5-7
					c0-2.1,1.3-3.2,3.5-3.2c1.8,0,2.9,1.3,3.1,3.2L975.3,856.2z"/>
			</g>
		</g>
	</g>
</g>
<g>
	<rect x="489.4" y="756.6" class="st4" width="98.1" height="146.2"/>
	<line class="st5" x1="503.5" y1="892.1" x2="576.7" y2="892.1"/>
	<rect x="501.8" y="755.6" width="85.7" height="6"/>
	<g>
		<rect x="489.4" y="783.8" class="st2" width="84.3" height="23.1"/>
		<g>
			<path class="st4" d="M504,789v13h-1.9v-10.2h0l-2,10.2H499l-2-10.2h0V802H495v-13h2.9l1.6,7.6h0l1.6-7.6H504z"/>
			<path class="st4" d="M507.4,802h-2.2l2.4-13h2.8l2.4,13h-2.2l-0.4-2.9h-2.4L507.4,802z M508.1,797.2h1.8l-0.9-5.6h0L508.1,797.2z
				"/>
			<path class="st4" d="M518.1,792.2c-0.1-1.1-0.7-1.4-1.2-1.4c-0.7,0-1.1,0.5-1.1,1.3c0,2.2,4.5,3.3,4.5,6.8c0,2.1-1.4,3.3-3.5,3.3
				c-2.1,0-3.3-1.7-3.3-3.6l2.1-0.3c0.1,1.3,0.6,2,1.3,2c0.8,0,1.3-0.4,1.3-1.2c0-2.6-4.5-3.3-4.5-7c0-2.1,1.3-3.2,3.5-3.2
				c1.8,0,2.9,1.3,3.1,3.2L518.1,792.2z"/>
			<path class="st4" d="M523.4,790.9h-2.2V789h6.6v1.9h-2.2V802h-2.2V790.9z"/>
			<path class="st4" d="M529.1,802v-13h6v1.9h-3.7v3.3h2.9v1.9h-2.9v3.8h4v1.9H529.1z"/>
			<path class="st4" d="M539.3,802h-2.2v-13h3.1c2.5,0,3.8,1.1,3.8,3.8c0,2.1-0.8,2.9-1.6,3.3l1.9,5.9H542l-1.6-5.4
				c-0.3,0-0.8,0.1-1.2,0.1V802z M539.3,794.8h0.8c1.2,0,1.7-0.5,1.7-2c0-1.5-0.5-2-1.7-2h-0.8V794.8z"/>
			<path class="st4" d="M546.4,802v-13h2.2v13H546.4z"/>
			<path class="st4" d="M551.1,802v-13h2.1l2.7,7.4h0V789h2v13H556l-2.8-8.1h0v8.1H551.1z"/>
			<path class="st4" d="M563.1,795.4h3.7v6.6h-1.1l-0.4-1c-0.7,0.8-1.2,1.2-2.3,1.2c-1.8,0-3-1.3-3-3.3v-6.7c0-1.8,1.1-3.3,3.3-3.3
				c2.2,0,3.3,1.6,3.3,3.6v0.8h-2.1c0-1.9-0.4-2.4-1.3-2.4c-0.5,0-1,0.3-1,1.4v6.7c0,0.8,0.3,1.4,1,1.4c0.9,0,1.2-0.5,1.2-1.8v-1.3
				h-1.4V795.4z"/>
		</g>
	</g>
	<rect x="511" y="817.4" class="st2" width="76.5" height="23.1"/>
	<g>
		<path class="st4" d="M529,823.7v13h-1.9v-10.2h0l-2,10.2H524l-2-10.2h0v10.2H520v-13h2.9l1.6,7.6h0l1.6-7.6H529z"/>
		<path class="st4" d="M531.1,826.9c0-1.8,1.1-3.3,3.4-3.3s3.4,1.5,3.4,3.3v6.7c0,1.8-1.1,3.3-3.4,3.3s-3.4-1.5-3.4-3.3V826.9z
			 M533.3,833.5c0,1,0.3,1.4,1.2,1.4s1.2-0.5,1.2-1.4v-6.6c0-1-0.3-1.4-1.2-1.4s-1.2,0.5-1.2,1.4V833.5z"/>
		<path class="st4" d="M540.1,823.7h3.3c2.3,0,3.5,1.3,3.5,3.9v5.1c0,2.7-1.2,3.9-3.5,3.9h-3.3V823.7z M542.3,834.9h0.8
			c1.2,0,1.6-0.5,1.6-1.8v-5.7c0-1.4-0.4-1.8-1.6-1.8h-0.8V834.9z"/>
		<path class="st4" d="M549.1,823.7h2.2v9.8c0,1,0.4,1.4,1.2,1.4c0.8,0,1.2-0.5,1.2-1.4v-9.8h2.2v9.7c0,2.2-1.3,3.5-3.4,3.5
			c-2.1,0-3.4-1.2-3.4-3.5V823.7z"/>
		<path class="st4" d="M558,836.7v-13h2.2v11.1h3.5v1.9H558z"/>
		<path class="st4" d="M566.4,836.7h-2.2l2.4-13h2.8l2.4,13h-2.2l-0.4-2.9h-2.4L566.4,836.7z M567.1,831.9h1.8l-0.9-5.6h0
			L567.1,831.9z"/>
		<path class="st4" d="M575.3,836.7h-2.2v-13h3.1c2.5,0,3.8,1.1,3.8,3.8c0,2.1-0.8,2.9-1.6,3.3l1.9,5.9h-2.3l-1.6-5.4
			c-0.3,0-0.8,0.1-1.2,0.1V836.7z M575.3,829.5h0.8c1.2,0,1.7-0.5,1.7-2c0-1.5-0.5-2-1.7-2h-0.8V829.5z"/>
	</g>
	<g>
		<rect x="489.4" y="851.5" class="st2" width="86.3" height="23.1"/>
		<g>
			<path class="st4" d="M494.1,868h0.5c0.9,0,1.2-0.4,1.2-1.1v-10.2h2.2v10.4c0,1.7-0.7,2.8-3.1,2.8h-0.7V868z"/>
			<path class="st4" d="M501.4,869.7h-2.2l2.4-13h2.8l2.4,13h-2.2l-0.4-2.9h-2.4L501.4,869.7z M502.1,864.9h1.8l-0.9-5.6h0
				L502.1,864.9z"/>
			<path class="st4" d="M512,856.7h2.2l-2.7,13h-2.2l-2.7-13h2.2l1.6,9h0L512,856.7z"/>
			<path class="st4" d="M516,869.7h-2.2l2.4-13h2.8l2.4,13h-2.2l-0.4-2.9h-2.4L516,869.7z M516.8,864.9h1.8l-0.9-5.6h0L516.8,864.9z
				"/>
			<path class="st4" d="M526.8,859.9c-0.1-1.1-0.7-1.4-1.2-1.4c-0.7,0-1.1,0.5-1.1,1.3c0,2.2,4.5,3.3,4.5,6.8c0,2.1-1.4,3.3-3.5,3.3
				c-2.1,0-3.3-1.7-3.3-3.6l2.1-0.3c0.1,1.3,0.6,2,1.3,2c0.8,0,1.3-0.4,1.3-1.2c0-2.6-4.5-3.3-4.5-7c0-2.1,1.3-3.2,3.5-3.2
				c1.8,0,2.9,1.3,3.1,3.2L526.8,859.9z"/>
			<path class="st4" d="M535.2,861.1v-1c0-1.1-0.5-1.6-1.1-1.6c-0.9,0-1.2,0.5-1.2,1.4v6.6c0,1,0.3,1.4,1.2,1.4
				c0.8,0,1.1-0.5,1.1-1.3v-1.6h2.2v1.5c0,1.8-1.1,3.3-3.3,3.3c-2.3,0-3.4-1.5-3.4-3.3v-6.7c0-1.8,1.1-3.3,3.4-3.3
				c2.2,0,3.3,1.6,3.3,3.6v1H535.2z"/>
			<path class="st4" d="M542,869.7h-2.2v-13h3.1c2.5,0,3.8,1.1,3.8,3.8c0,2.1-0.8,2.9-1.6,3.3l1.9,5.9h-2.3l-1.6-5.4
				c-0.3,0-0.8,0.1-1.2,0.1V869.7z M542,862.6h0.8c1.2,0,1.7-0.5,1.7-2c0-1.5-0.5-2-1.7-2H542V862.6z"/>
			<path class="st4" d="M549,869.7v-13h2.2v13H549z"/>
			<path class="st4" d="M553.7,869.7v-13h3.2c2.8,0,4,1.1,4,3.8s-1.3,3.8-4,3.8h-1v5.3H553.7z M556,862.6h0.9c1.5,0,1.9-0.5,1.9-2
				c0-1.5-0.5-2-1.9-2H556V862.6z"/>
			<path class="st4" d="M564,858.7h-2.2v-1.9h6.6v1.9h-2.2v11.1H564V858.7z"/>
		</g>
	</g>
</g>
<circle class="st6" cx="928.5" cy="1099.4" r="15.1"/>
<g>
	<g>
		<path class="st3" d="M560.6,1156.1c0-0.1,0-0.2,0-0.2l-3.1-19c0-0.2-0.3-0.4-0.5-0.4l-0.5,0.1l-0.5-2.8c0-0.2-0.2-0.3-0.3-0.2
			l-3.2,0.5c-0.2,0-0.3,0.2-0.2,0.3l0.5,2.8l-0.5,0.1c-0.1,0-0.2,0.1-0.3,0.2s-0.1,0.2-0.1,0.3l0.3,1.8l-1.5,0.2
			c-0.1,0-0.2,0.1-0.3,0.2s-0.1,0.2-0.1,0.3l1.1,6.5c0,0.1,0.1,0.2,0.2,0.3c0.1,0.1,0.2,0.1,0.3,0.1c0.2,0,0.4-0.3,0.4-0.5l-1-6.1
			l1.1-0.2l2.7,16.5c0,0,0,0,0,0c0,0,0,0.1,0,0.1 M552.8,1138l3.9-0.6l3,18.3l-3.9,0.6L552.8,1138z"/>
	</g>
	<g>
		<path class="st3" d="M574.2,1159c0,0,0.1-0.1,0.1-0.1c0,0,0,0,0,0l7.1-15.1l1,0.5l-2.6,5.6c-0.1,0.2,0,0.5,0.2,0.6
			c0.1,0.1,0.2,0,0.3,0c0.1,0,0.2-0.1,0.3-0.2l2.8-6c0-0.1,0-0.2,0-0.3c0-0.1-0.1-0.2-0.2-0.3l-1.4-0.6l0.8-1.6c0-0.1,0-0.2,0-0.3
			s-0.1-0.2-0.2-0.3l-0.5-0.2l1.2-2.6c0.1-0.1,0-0.3-0.1-0.4l-2.9-1.4c-0.1-0.1-0.3,0-0.4,0.1l-1.2,2.6l-0.5-0.2
			c-0.2-0.1-0.5,0-0.6,0.2l-8.2,17.4c-0.1,0.1-0.1,0.1-0.1,0.2 M573.7,1158.1l-3.6-1.7l7.9-16.7l3.6,1.7L573.7,1158.1z"/>
	</g>
	<g>
		<g>
			<rect x="559.2" y="1133.5" class="st6" width="9.8" height="24.2"/>
			<line class="st7" x1="564.1" y1="1139.3" x2="569" y2="1139.3"/>
			<line class="st7" x1="564.1" y1="1144.6" x2="569" y2="1144.6"/>
			<line class="st7" x1="564.1" y1="1149.9" x2="569" y2="1149.9"/>
			<line class="st7" x1="564.1" y1="1155.2" x2="569" y2="1155.2"/>
		</g>
		<path class="st8" d="M548.6,1160.5v-1.5h31.1v-5.5h-31.1v23.6c0,2,1.5,3.7,3.4,4v0.1h24.2v-0.1c1.9-0.3,3.4-2,3.4-4v-16.7H548.6z"
			/>
		<path class="st8" d="M552.2,1182.7c0.4,1.1,1.5,1.9,2.8,1.9h18.2c1.3,0,2.4-0.8,2.8-1.9H552.2z"/>
	</g>
</g>
<g>
	<path class="st3" d="M928.5,1056c4.8,0,9.3,0.7,13.7,2v-22.6c0-3.8-3.1-6.8-6.8-6.8h-13.7c-3.8,0-6.8,3.1-6.8,6.8v22.6
		C919.1,1056.7,923.7,1056,928.5,1056z"/>
	<path class="st3" d="M887.4,1103.9h82.2c0-17.9-11.5-33-27.4-38.7c-4.3-1.5-8.9-2.4-13.7-2.4s-9.4,0.9-13.7,2.4
		C898.8,1070.9,887.4,1086.1,887.4,1103.9z"/>
	<path class="st3" d="M1024.3,1186.1v-6.8h-11.6l29.1-58.2l-32.5-65.1h11.7v-6.8h-51.5c0,0,0-13.7-13.7-13.7H949v20.5h32.1
		l32.5,65.1l-29.1,58.2h-8.2v6.8H1024.3z M1027.2,1107.1l-9.2,7.4l-29.2-58.5h12.9L1027.2,1107.1z M992.2,1179.3l25.8-51.6l9.2,7.4
		l-22.1,44.3H992.2z"/>
</g>
<g>
	<path class="st8" d="M965,1144v36.8c0,2.3,1.9,4.2,4.2,4.2h27.2c2.3,0,4.2-1.9,4.2-4.2V1144H965z"/>
	<circle class="st9" cx="964" cy="1164.6" r="12.1"/>
	<g class="st10">
		<defs>
			<path id="SVGID_11_" class="st10" d="M965,1144v36.8c0,2.3,1.9,4.2,4.2,4.2h27.2c2.3,0,4.2-1.9,4.2-4.2V1144H965z"/>
		</defs>
		<clipPath id="SVGID_12_">
			<use xlink:href="#SVGID_11_"  style="overflow:visible;"/>
		</clipPath>
		<g transform="matrix(1 0 0 1 0 0)" style="opacity:0.7;clip-path:url(#SVGID_12_);">
			
				<image style="overflow:visible;" width="156" height="156" xlink:href="../../../Desktop/ponyfoo-logo.png"  transform="matrix(0.1627 0 0 0.1627 981.2736 1151.1741)">
			</image>
		</g>
	</g>
</g>
<path class="st11" d="M886.5,1153.1h-273c-3.3,0-6-2.7-6-6V973.6c0-3.3,2.7-6,6-6h273c3.3,0,6,2.7,6,6v173.5
	C892.5,1150.4,889.8,1153.1,886.5,1153.1z"/>
<rect x="619.5" y="978.1" class="st4" width="261" height="144.5"/>
<g>
	<line class="st12" x1="638.7" y1="1000.2" x2="861.3" y2="1000.2"/>
	<line class="st12" x1="638.7" y1="1038.2" x2="861.3" y2="1038.2"/>
	<line class="st12" x1="638.7" y1="1050.9" x2="861.3" y2="1050.9"/>
	<line class="st12" x1="638.7" y1="1063.5" x2="861.3" y2="1063.5"/>
	<line class="st12" x1="638.7" y1="1025.5" x2="683.5" y2="1025.5"/>
	<line class="st12" x1="638.7" y1="1012.9" x2="666.8" y2="1012.9"/>
	<line class="st12" x1="638.7" y1="1101.6" x2="861.3" y2="1101.6"/>
	<line class="st12" x1="638.7" y1="1088.9" x2="683.5" y2="1088.9"/>
	<line class="st12" x1="638.7" y1="1076.2" x2="666.8" y2="1076.2"/>
</g>
<rect x="442.5" y="1185" class="st3" width="615" height="18"/>
<circle class="st13" cx="704" cy="1012" r="13.4"/>
<circle class="st13" cx="800.7" cy="1012" r="13.4"/>
<path class="st13" d="M768.3,1093.5c0,8.8-7.2,16-16,16c-8.8,0-16-7.2-16-16v-53.7h32V1093.5z"/>
<path class="st6" d="M815,973.6c0-13.9-9.6-25.6-22.6-28.8c5.7-5.1,9.3-12.6,9.3-20.8h-71.9c-12.8,0-23.2,10.2-23.5,23
	c-9.9,4.8-16.7,14.9-16.7,26.7c0,10.3,5.2,19.4,13.2,24.7v26.8c0,14.4,11.8,26.1,26.1,26.1h46.7c14.4,0,26.1-11.8,26.1-26.1v-26.8
	C809.8,992.9,815,983.8,815,973.6z"/>
<path class="st14" d="M620.7,1152.8c-8.8,0-15.9,7.1-15.9,15.9s7.1,15.9,15.9,15.9h97.6c8.8,0,15.9-7.1,15.9-15.9
	s-7.1-15.9-15.9-15.9H620.7z"/>
<path class="st15" d="M877.7,1183.2c0-15.6,12.7-28.3,28.3-28.3c15.6,0,28.3,12.7,28.3,28.3"/>
<path class="st14" d="M865.4,1169.8c-8.7,1.6-14.4,9.9-12.8,18.6c1.6,8.7,9.9,14.4,18.6,12.8l26.4-12.4c8.7-1.6,14.4-9.9,12.8-18.6
	c-1.6-8.7-9.9-14.4-18.6-12.8L865.4,1169.8z"/>
<path class="st14" d="M787.2,1078.4c0-11-8.9-19.9-19.9-19.9h-31.4c-11,0-19.9,8.9-19.9,19.9H787.2z"/>
<path class="st16" d="M880.6,1171l-73.7-93.7c-2.5-2.5-5.5-4.1-8.7-4.8l-0.1-0.4H696.3l0,0.2c-3.8,0.5-7.5,2.1-10.4,5.1l-77,77
	c-6.9,6.9-6.9,18.2,0,25.1c6.9,6.9,18.2,6.9,25.1,0l59.6-59.6l-4.7,84h125l-8.6-71.4l50,63.6c6.9,6.9,18.2,6.9,25.1,0
	C887.5,1189.3,887.5,1178,880.6,1171z"/>
<path class="st17" d="M707.7,1204c7.1-58.2,46.5-106.3,99.6-126.1l-0.4-0.6c-2.5-2.5-5.5-4.1-8.7-4.8l-0.1-0.4H696.3l0,0.2
	c-3.8,0.5-7.5,2.1-10.4,5.1l-77,77c-6.9,6.9-6.9,18.2,0,25.1c6.9,6.9,18.2,6.9,25.1,0l59.6-59.6l-4.7,84H707.7z"/>
<path class="st11" d="M826.3,1170.7c0,11-9,20-20,20H693.7c-11,0-20-9-20-20V1126c0-11,9-20,20-20h112.7c11,0,20,9,20,20V1170.7z"/>
<path class="st18" d="M814,1173.9c0,9.2-7.6,16.8-16.8,16.8h-94.5c-9.2,0-16.8-7.6-16.8-16.8v-37.5c0-9.2,7.6-16.8,16.8-16.8h94.5
	c9.2,0,16.8,7.6,16.8,16.8V1173.9z"/>
<path class="st19" d="M734,1150.3c0-8.8,7.2-16,16-16s16,7.2,16,16v53.7h-32V1150.3z"/>
<rect x="1222.1" y="783.5" class="st20" width="243.4" height="339.1"/>
<path class="st21" d="M1340.2,838.2c5.6,5,9.2,12.2,9.2,20.3c0,14.9-12.1,27-27,27c-2.3,0-4.6-0.3-6.8-0.9c4.8,4.2,11,6.7,17.8,6.7
	c14.9,0,27-12.1,27-27C1360.4,851.8,1351.8,841.2,1340.2,838.2z"/>
<rect x="1222.1" y="999.9" transform="matrix(-1 -4.480961e-11 4.480961e-11 -1 2468.8962 2122.4062)" class="st20" width="24.8" height="122.6"/>
<polygon class="st20" points="1379.6,1059.8 1379.6,934.7 1429.1,934.7 1429.1,1122.5 1379.6,1122.5 1316.9,1122.5 1316.9,1059.8 
	"/>
<rect x="1427.6" y="783.5" transform="matrix(-1 -1.224647e-16 1.224647e-16 -1 2893.1062 1906)" class="st21" width="37.9" height="339.1"/>
<g>
	<g>
		<line class="st22" x1="1439.5" y1="783.5" x2="1439.5" y2="962.4"/>
		<g>
			<polygon class="st23" points="1434.5,969.8 1439.5,961.5 1444.5,969.8 			"/>
		</g>
	</g>
</g>
<g>
	<line class="st24" x1="1446.6" y1="794.1" x2="1222.1" y2="794.1"/>
	<line class="st24" x1="1446.6" y1="812.8" x2="1222.1" y2="812.8"/>
	<line class="st24" x1="1446.6" y1="831.4" x2="1222.1" y2="831.4"/>
	<line class="st24" x1="1446.6" y1="850.1" x2="1222.1" y2="850.1"/>
</g>
<path class="st25" d="M860.1,831.3h-7v-7c0-0.4-0.3-0.8-0.8-0.8s-0.8,0.3-0.8,0.8v7h-7c-0.4,0-0.8,0.3-0.8,0.8s0.3,0.8,0.8,0.8h7v7
	c0,0.4,0.3,0.8,0.8,0.8s0.8-0.3,0.8-0.8v-7h7c0.4,0,0.8-0.3,0.8-0.8S860.5,831.3,860.1,831.3z"/>
<path class="st25" d="M907.9,939.9h-7v-7c0-0.4-0.3-0.8-0.8-0.8s-0.8,0.3-0.8,0.8v7h-7c-0.4,0-0.8,0.3-0.8,0.8s0.3,0.8,0.8,0.8h7v7
	c0,0.4,0.3,0.8,0.8,0.8s0.8-0.3,0.8-0.8v-7h7c0.4,0,0.8-0.3,0.8-0.8S908.4,939.9,907.9,939.9z"/>
<path class="st25" d="M1065.7,817.7l-5-5l5-5c0.3-0.3,0.3-0.8,0-1.1c-0.3-0.3-0.8-0.3-1.1,0l-5,5l-5-5c-0.3-0.3-0.8-0.3-1.1,0
	c-0.3,0.3-0.3,0.8,0,1.1l5,5l-5,5c-0.3,0.3-0.3,0.8,0,1.1c0.3,0.3,0.8,0.3,1.1,0l5-5l5,5c0.3,0.3,0.8,0.3,1.1,0
	C1066,818.5,1066,818,1065.7,817.7z"/>
<path class="st25" d="M514,944.1l-5-5l5-5c0.3-0.3,0.3-0.8,0-1.1s-0.8-0.3-1.1,0l-5,5l-5-5c-0.3-0.3-0.8-0.3-1.1,0s-0.3,0.8,0,1.1
	l5,5l-5,5c-0.3,0.3-0.3,0.8,0,1.1s0.8,0.3,1.1,0l5-5l5,5c0.3,0.3,0.8,0.3,1.1,0S514.3,944.4,514,944.1z"/>
<text transform="matrix(0.9996 -2.807000e-02 2.807000e-02 0.9996 638.3266 913.1868)" class="st2 st26 st27">`Hello ${planet}!`</text>
<text transform="matrix(0.9876 -0.1572 0.1572 0.9876 508.5261 985.9689)"><tspan x="0" y="0" class="st6 st26 st27">(</tspan><tspan x="9.6" y="0" class="st6 st26 st27 st28">)</tspan><tspan x="22.4" y="0" class="st6 st26 st27">=</tspan><tspan x="32" y="0" class="st6 st26 st27 st28">&gt;</tspan><tspan x="44.8" y="0" class="st6 st26 st27">{}</tspan></text>
<circle class="st29" cx="1084" cy="846.3" r="2.4"/>
<circle class="st29" cx="574.7" cy="1062.1" r="2.4"/>
<g>
	<defs>
		<rect id="SVGID_13_" y="703" width="1500" height="501"/>
	</defs>
	<clipPath id="SVGID_14_">
		<use xlink:href="#SVGID_13_"  style="overflow:visible;"/>
	</clipPath>
	<path class="st38" d="M750,1491.8c-117.6,0-228.1-45.8-311.2-128.9c-83.1-83.1-128.9-193.7-128.9-311.2
		c0-117.6,45.8-228.1,128.9-311.2c83.1-83.1,193.7-128.9,311.2-128.9s228.1,45.8,311.2,128.9c83.1,83.1,128.9,193.7,128.9,311.2
		c0,117.6-45.8,228.1-128.9,311.2C978.1,1446,867.6,1491.8,750,1491.8z"/>
</g>
<g>
	<defs>
		<rect id="SVGID_15_" y="703" width="1500" height="501"/>
	</defs>
	<clipPath id="SVGID_16_">
		<use xlink:href="#SVGID_15_"  style="overflow:visible;"/>
	</clipPath>
	<path class="st39" d="M750,1317.1c-71.1,0-137.8-27.7-188.1-77.9c-50.2-50.2-77.9-117-77.9-188.1s27.7-137.8,77.9-188.1
		c50.2-50.2,117-77.9,188.1-77.9s137.9,27.7,188.1,77.9s77.9,117,77.9,188.1c0,71.1-27.7,137.9-77.9,188.1
		C887.8,1289.5,821.1,1317.1,750,1317.1z"/>
</g>
<rect x="0.1" y="729.9" class="st20" width="215.6" height="473.1"/>
<line class="st32" x1="215.7" y1="723" x2="215.7" y2="1203"/>
<rect y="857.8" class="st21" width="215.7" height="15"/>
<rect y="1000.2" class="st21" width="215.7" height="15"/>
<rect y="1142.5" class="st21" width="215.7" height="15"/>
<rect y="1035.1" class="st21" width="13.4" height="107.5"/>
<rect x="16.7" y="892.8" class="st20" width="22.7" height="107.5"/>
<rect x="47.7" y="892.8" class="st20" width="22.7" height="107.5"/>
<rect x="78.7" y="892.8" class="st21" width="22.7" height="107.5"/>
<rect x="135.9" y="1035.1" class="st21" width="29.2" height="107.5"/>
<rect x="173.4" y="1035.1" class="st20" width="34.1" height="107.5"/>
<rect x="173.4" y="749.9" class="st20" width="34.1" height="107.5"/>
<rect x="109.7" y="918.7" class="st21" width="34.1" height="81.6"/>
<rect x="111.1" y="1064.5" class="st21" width="16.5" height="78.2"/>
<rect y="914.3" class="st20" width="8.4" height="85.9"/>
<rect x="176.9" y="892.8" class="st21" width="22.7" height="107.5"/>
<rect x="152.1" y="914.3" class="st20" width="16.5" height="85.9"/>
<rect x="150.4" y="771.5" transform="matrix(0.9823 0.1872 -0.1872 0.9823 155.2502 -15.3049)" class="st20" width="16.5" height="85.9"/>
<rect x="152.1" y="1175.8" transform="matrix(-1 -1.224647e-16 1.224647e-16 -1 326.9399 2378.8162)" class="st20" width="22.7" height="27.2"/>
<rect x="121.1" y="1175.8" transform="matrix(-1 -1.224647e-16 1.224647e-16 -1 264.9247 2378.8162)" class="st20" width="22.7" height="27.2"/>
<rect x="183.1" y="1189.2" transform="matrix(-1 -1.224647e-16 1.224647e-16 -1 382.7537 2392.1992)" class="st20" width="16.5" height="13.8"/>
<rect x="54.5" y="1042.4" transform="matrix(-1 -6.735558e-11 6.735558e-11 -1 131.6936 2184.8003)" class="st20" width="22.7" height="100.1"/>
<rect x="23.5" y="1042.4" transform="matrix(-1 -6.727564e-11 6.727564e-11 -1 69.6783 2184.8003)" class="st20" width="22.7" height="100.1"/>
<rect x="85.5" y="1062.4" transform="matrix(-1 -6.720548e-11 6.720548e-11 -1 187.5074 2204.8801)" class="st20" width="16.5" height="80"/>
<rect x="90.1" y="1175.8" transform="matrix(-1 -1.224647e-16 1.224647e-16 -1 202.9093 2378.8162)" class="st21" width="22.7" height="27.2"/>
<rect x="47.7" y="1191.9" transform="matrix(-1 -1.224647e-16 1.224647e-16 -1 129.4922 2394.9077)" class="st21" width="34.1" height="11.1"/>
<rect y="1175.8" transform="matrix(-1 -1.224647e-16 1.224647e-16 -1 14.6009 2378.8162)" class="st21" width="14.6" height="27.2"/>
<rect x="22.9" y="1189.2" transform="matrix(-1 -1.224647e-16 1.224647e-16 -1 62.2767 2392.1992)" class="st20" width="16.5" height="13.8"/>
<rect x="121.9" y="790.6" transform="matrix(-1 -7.328106e-11 7.328106e-11 -1 257.7231 1648.0045)" class="st21" width="13.9" height="66.7"/>
<rect x="95.9" y="806.7" transform="matrix(-1 -7.334235e-11 7.334235e-11 -1 212.7629 1664.0958)" class="st21" width="20.9" height="50.6"/>
<rect x="36.6" y="812.4" transform="matrix(-8.046737e-11 1 -1 -8.046737e-11 894.3804 806.6678)" class="st21" width="14.5" height="76.3"/>
<rect x="39.6" y="780.8" transform="matrix(-8.046737e-11 1 -1 -8.046737e-11 865.8353 772.1227)" class="st21" width="14.5" height="76.3"/>
<rect x="42.1" y="798.9" transform="matrix(-6.000107e-11 1 -1 -6.000107e-11 884.8547 784.1422)" class="st20" width="16.5" height="71.3"/>
<rect y="1000.2" class="st33" width="207.6" height="4.2"/>
<rect x="0" y="723" class="st21" width="215.7" height="15"/>
<rect y="857.8" class="st33" width="207.6" height="4.2"/>
<rect y="1142.5" class="st33" width="207.6" height="4.2"/>
<text transform="matrix(0.9731 0.2303 -0.2303 0.9731 946.8154 956.496)" class="st34 st26 st27">const</text>
<rect x="1044.4" y="1064.2" transform="matrix(0.7071 0.7071 -0.7071 0.7071 1063.7983 -429.0379)" class="st29" width="10.8" height="10.8"/>
<rect x="824.4" y="765.9" transform="matrix(0.7071 0.7071 -0.7071 0.7071 788.4163 -360.8575)" class="st29" width="10.8" height="10.8"/>
<rect x="632" y="717.6" transform="matrix(0.7071 0.7071 -0.7071 0.7071 697.9279 -238.9471)" class="st29" width="10.8" height="10.8"/>
<circle class="st29" cx="454" cy="820.4" r="5.6"/>
<circle class="st29" cx="619.5" cy="942.8" r="5.6"/>
<circle class="st29" cx="403.4" cy="850.4" r="2.4"/>
<circle class="st29" cx="1000.1" cy="1008.7" r="5.6"/>
<rect x="431.5" y="1043.1" transform="matrix(0.7071 0.7071 -0.7071 0.7071 869.3199 -1.8163)" class="st29" width="10.8" height="10.8"/>
<rect x="538.9" y="1013.3" transform="matrix(0.7071 0.7071 -0.7071 0.7071 879.7394 -86.4961)" class="st29" width="10.8" height="10.8"/>
<circle class="st29" cx="828" cy="948" r="2.4"/>
<rect x="663.2" y="811.5" transform="matrix(0.7071 0.7071 -0.7071 0.7071 773.4107 -233.4736)" class="st29" width="10.8" height="10.8"/>
<circle class="st29" cx="939" cy="1000.3" r="2.4"/>
<path class="st35" d="M745.7,1153.1c0-2.4,1.9-4.3,4.3-4.3s4.3,1.9,4.3,4.3v51.3h-8.5V1153.1z"/>
<g>
	<defs>
		<rect id="SVGID_17_" y="703" width="1500" height="501"/>
	</defs>
	<clipPath id="SVGID_18_">
		<use xlink:href="#SVGID_17_"  style="overflow:visible;"/>
	</clipPath>
	<path class="st40" d="M909.8,891.4c-42.7-42.7-99.4-66.2-159.8-66.2c-60.3,0-117.1,23.5-159.8,66.2
		c-42.7,42.7-66.2,99.4-66.2,159.8s23.5,117.1,66.2,159.8s99.4,66.2,159.8,66.2c60.3,0,117.1-23.5,159.8-66.2
		c42.7-42.7,66.2-99.4,66.2-159.8S952.4,934,909.8,891.4z"/>
</g>
</svg>
